<svg width="31" height="32" viewBox="0 0 31 32" fill="none" xmlns="http://www.w3.org/2000/svg">
<rect x="0.5" y="1.35938" width="30" height="30" rx="15" stroke="black" style="stroke:black;stroke-opacity:1;" stroke-linecap="round" stroke-linejoin="round"/>
<path d="M15.5 17.1094C12.33 17.1094 9.75 14.5294 9.75 11.3594C9.75 8.18937 12.33 5.60938 15.5 5.60938C18.67 5.60938 21.25 8.18937 21.25 11.3594C21.25 14.5294 18.67 17.1094 15.5 17.1094ZM15.5 7.10938C13.16 7.10938 11.25 9.01938 11.25 11.3594C11.25 13.6994 13.16 15.6094 15.5 15.6094C17.84 15.6094 19.75 13.6994 19.75 11.3594C19.75 9.01938 17.84 7.10938 15.5 7.10938Z" fill="black" fill-opacity="0.8" style="fill:black;fill-opacity:0.8;"/>
<path d="M24.0901 27.1094C23.6801 27.1094 23.3401 26.7694 23.3401 26.3594C23.3401 22.9094 19.8202 20.1094 15.5002 20.1094C11.1802 20.1094 7.66016 22.9094 7.66016 26.3594C7.66016 26.7694 7.32016 27.1094 6.91016 27.1094C6.50016 27.1094 6.16016 26.7694 6.16016 26.3594C6.16016 22.0894 10.3502 18.6094 15.5002 18.6094C20.6502 18.6094 24.8401 22.0894 24.8401 26.3594C24.8401 26.7694 24.5001 27.1094 24.0901 27.1094Z" fill="black" fill-opacity="0.8" style="fill:black;fill-opacity:0.8;"/>
</svg>
