<svg width="25" height="25" viewBox="0 0 25 25" fill="none" xmlns="http://www.w3.org/2000/svg">
<path d="M5.04492 5.16406C5.04492 4.47371 5.60457 3.91406 6.29492 3.91406V3.91406C6.98528 3.91406 7.54492 4.47371 7.54492 5.16406V20.6641C7.54492 21.3544 6.98528 21.9141 6.29492 21.9141V21.9141C5.60457 21.9141 5.04492 21.3544 5.04492 20.6641V5.16406Z" stroke="black" stroke-opacity="0.8" style="stroke:black;stroke-opacity:0.8;" stroke-width="1.5" stroke-linejoin="round"/>
<path d="M7.54492 5.91406C10.6948 6.61403 13.1097 6.82405 15.6471 6.5441C17.1499 6.37829 17.9014 6.29539 18.3447 6.57484C18.4988 6.67192 18.6051 6.76721 18.7185 6.90967C19.0449 7.31972 19.0449 8.00387 19.0449 9.37216V12.806C19.0449 13.7128 19.0449 14.1662 18.8159 14.5316C18.7453 14.6441 18.6451 14.7632 18.5463 14.8518C18.2251 15.1397 17.8112 15.2112 16.9833 15.3541C13.9256 15.8822 11.2413 15.7355 7.54492 14.9141V5.91406Z" stroke="black" stroke-opacity="0.8" style="stroke:black;stroke-opacity:0.8;" stroke-width="1.5" stroke-linejoin="round"/>
</svg>
