<svg width="151" height="150" viewBox="0 0 151 150" fill="none" xmlns="http://www.w3.org/2000/svg">
<path d="M118.713 1.61101C102.541 4.89226 86.3984 8.64226 76.4668 11.3962C65.832 14.3551 59.2695 16.7868 54.2305 19.6872C45.6758 24.5798 43.5664 28.5934 45.9395 35.361C46.4375 36.7673 47.4922 39.3161 48.3125 41.0153L49.748 44.1208L45.9102 62.3727C37.3848 103.095 37.209 103.974 36.5352 113.379C36.1543 118.945 35.6562 132.07 35.6562 137.343C35.6562 141.386 35.6855 141.562 36.3887 142.236C37.0039 142.881 37.3555 142.968 39.084 142.968C43.0977 142.968 43.5664 142.295 49.5723 128.466C54.9336 116.103 55.5488 115.078 60.0898 110.888C61.6426 109.482 63.166 107.871 63.5176 107.314C64.4551 105.82 64.3672 103.886 63.3418 101.806C62.4043 99.9899 59.4746 96.6208 57.8047 95.5075C56.9258 94.8923 56.8086 94.6579 56.9551 93.8962C57.2773 91.9333 58.0391 89.6481 59.1523 87.1579C59.8262 85.693 61.291 82.3239 62.4629 79.6286L64.543 74.7067L70.0508 85.7809C75.3828 96.4743 75.5879 96.943 76.2617 100.224C77.9023 108.34 80.0703 114.609 84.7285 124.804C86.7793 129.287 89.6797 136.377 92.4629 143.554C93.6641 146.631 94.8359 149.209 95.1875 149.472C96.0957 150.263 97.1797 150.117 98.8203 149.004C100.725 147.715 102.365 145.488 103.098 143.173C103.801 140.947 103.684 138.427 102.453 131.103C100.93 121.845 100.988 120.381 103.186 116.045C104.885 112.675 105.734 109.306 105.793 105.908C105.822 103.183 105.764 102.861 104.973 101.425C103.566 98.9352 101.516 97.5583 97.6191 96.5329L95.2754 95.9469L94.3379 94.0719C92.3457 90.029 92.1406 88.7985 91.9062 77.6364C91.6719 67.7634 91.4961 65.2438 90.5879 59.4137C89.0644 49.6286 87.6289 46.1423 83.5566 42.2458C82.4434 41.1618 81.1836 40.0485 80.7734 39.7848C80.3633 39.5212 80.1289 39.2282 80.2461 39.111C80.3633 38.9938 81.3594 38.6423 82.4434 38.32C83.8789 37.8805 85.666 37.6755 88.8594 37.5876L93.2832 37.4411L95.5098 39.0817C105.09 46.1423 117.16 50.8884 127.033 51.4743C130.197 51.6501 130.227 51.6501 130.988 50.8884C131.955 49.9216 132.014 48.5739 131.076 47.6364C130.49 47.0505 129.992 46.9333 127.355 46.7575C121.525 46.3766 115.607 44.7653 109.484 41.8649C106.32 40.3708 101.75 37.7927 101.926 37.6169C101.984 37.5583 105.383 37.3825 109.484 37.2067C121.877 36.6794 129.816 35.654 131.076 34.3942C131.984 33.486 131.955 32.1091 131.018 31.2009C130.256 30.4098 129.641 30.322 127.648 30.7907C122.639 31.9333 114.318 32.4899 97.3262 32.8122C85.2851 33.0173 83.9375 33.1052 81.7988 33.6618C78.4883 34.5407 76.1152 35.7712 74.5039 37.4704C72.248 39.902 72.6289 41.0446 76.2617 42.7438C78.1953 43.652 79.2207 44.3845 80.6269 45.82C83.0586 48.3102 84.1426 50.5661 85.0215 54.9606C86.6621 63.193 87.2187 69.0231 87.2187 78.2223C87.248 87.6266 87.8926 91.5524 90.1484 96.2399C91.6426 99.3161 92.9609 100.781 94.3086 100.781C95.7734 100.781 98.5859 101.572 99.5527 102.275C100.607 103.007 101.281 104.267 101.281 105.468C101.281 107.431 100.285 111.006 98.9082 114.023C96.2715 119.824 96.1543 121.64 97.7656 131.396C98.9961 138.72 99.1426 140.976 98.498 142.382C98.2051 143.027 97.8828 143.554 97.7656 143.554C97.6191 143.554 97.0332 142.265 96.418 140.683C94.25 135.058 90.4414 125.918 88.2148 121.084C84.5234 112.968 82.1797 106.025 80.7441 98.7301C80.1289 95.5075 79.8945 94.9801 75.9394 87.0114C66.2422 67.6169 54.3184 43.0368 51.1543 35.9177C49.0156 31.1716 49.1621 29.5602 51.9746 26.9235C55.6953 23.4665 63.0488 20.1852 74.6211 16.8161C84.6113 13.8864 103.801 9.40398 120.031 6.18132C124.133 5.36101 127.795 4.5407 128.146 4.36491C129.113 3.86687 129.553 2.54851 129.143 1.49382C128.762 0.644211 127.736 -0.0296173 126.828 0.0289764C126.564 0.0289764 122.902 0.761398 118.713 1.61101ZM57.4531 60.1755L61.7891 69.0524L59.2988 75.029C57.9219 78.3102 56.0469 82.6462 55.1387 84.6384C53.4102 88.4176 52.5312 91.318 52.1797 94.3063C51.916 96.8258 52.1211 97.3825 53.9082 98.5251C56.5449 100.254 59.3867 103.447 59.3867 104.707C59.3867 105.146 58.6543 105.966 57.1309 107.226C54.582 109.365 52.0039 112.47 50.4219 115.312C49.8359 116.367 47.668 121.084 45.6172 125.771C43.5957 130.488 41.5449 134.97 41.1055 135.791L40.3145 137.256L40.4902 130.81C40.7246 121.992 41.1641 113.818 41.6914 108.398C42.1602 103.535 42.7754 100.371 48.957 70.7223C51.1543 60.2634 52.9414 51.5915 52.9414 51.4743C52.9414 51.3571 52.9707 51.2692 53.0293 51.2692C53.0879 51.2692 55.0801 55.2829 57.4531 60.1755Z" fill="#FE93B9" style="fill:#FE93B9;fill:color(display-p3 0.9961 0.5765 0.7255);fill-opacity:1;"/>
<path d="M29.5329 33.3105C29.152 33.6328 28.7126 34.5703 28.4489 35.5957C27.2477 40.1953 24.5524 44.0332 22.2672 44.3848C20.6559 44.6191 19.7477 45.1758 19.4254 46.084C18.8102 47.7832 19.8942 49.0137 22.2672 49.3652C23.9372 49.6289 25.5192 51.2402 26.8669 54.0234C27.4821 55.3418 28.2145 57.1875 28.4489 58.1543C28.9469 60.0879 29.7086 60.9375 30.9684 60.9375C32.2282 60.9375 32.9899 60.0879 33.4879 58.1543C33.7223 57.1875 34.4547 55.3418 35.07 54.0234C36.4176 51.2402 37.9997 49.6289 39.6696 49.3652C42.0426 49.0137 43.1266 47.7832 42.5114 46.084C42.1891 45.1758 41.2809 44.6191 39.6696 44.3848C37.9997 44.1211 36.4176 42.5098 35.07 39.7266C34.4547 38.4082 33.7223 36.5625 33.4879 35.5957C32.9899 33.6621 32.2282 32.8125 30.9684 32.8125C30.529 32.8125 29.8844 33.0469 29.5329 33.3105ZM31.3493 42.832C31.4079 43.0371 32.111 44.0332 32.8727 45.0293L34.2497 46.875L32.902 48.6621C32.1403 49.6582 31.4079 50.6836 31.2614 50.9473C30.9977 51.3867 30.9391 51.3867 30.6754 50.9473C30.529 50.6836 29.7965 49.6582 29.0348 48.6621L27.6872 46.875L29.0641 45.0293C29.8258 44.0332 30.529 43.0371 30.5876 42.832C30.6754 42.6562 30.8512 42.4805 30.9684 42.4805C31.0856 42.4805 31.2614 42.6562 31.3493 42.832Z" fill="#FE93B9" style="fill:#FE93B9;fill:color(display-p3 0.9961 0.5765 0.7255);fill-opacity:1;"/>
<path d="M106.906 52.0605C106.583 52.3535 105.939 53.4961 105.499 54.6387C103.361 60.2344 99.6694 65.0977 97.2964 65.4785C95.6557 65.7129 94.7475 66.2695 94.4253 67.1777C93.81 68.877 94.894 70.0781 97.2964 70.459C99.6694 70.8398 103.361 75.7031 105.499 81.2988C106.408 83.584 107.111 84.375 108.312 84.375C109.542 84.375 110.216 83.584 111.3 80.8594C113.527 75.3516 116.984 70.8398 119.328 70.459C120.968 70.2246 121.876 69.668 122.199 68.7598C122.814 67.0605 121.73 65.8594 119.328 65.4785C116.984 65.0977 113.527 60.5859 111.3 55.0781C110.216 52.3535 109.542 51.5625 108.312 51.5625C107.873 51.5625 107.228 51.7969 106.906 52.0605ZM109.572 62.2559C110.187 63.3105 111.476 65.0391 112.472 66.0645L114.23 67.9688L112.472 69.873C111.476 70.8984 110.187 72.627 109.572 73.6816C108.957 74.707 108.4 75.5859 108.312 75.5859C108.224 75.5859 107.638 74.7363 107.052 73.6816C106.466 72.6562 105.148 70.9277 104.181 69.873L102.394 67.9688L104.181 66.0645C105.148 65.0098 106.466 63.2812 107.052 62.2559C107.638 61.2012 108.224 60.3516 108.312 60.3516C108.4 60.3516 108.957 61.2305 109.572 62.2559Z" fill="#FE93B9" style="fill:#FE93B9;fill:color(display-p3 0.9961 0.5765 0.7255);fill-opacity:1;"/>
<path d="M118.595 82.5293C118.215 82.8516 117.775 83.7891 117.511 84.8145C116.31 89.4141 113.615 93.252 111.33 93.6035C109.718 93.8379 108.81 94.3945 108.488 95.3027C107.873 97.002 108.957 98.2324 111.33 98.584C113 98.8477 114.582 100.459 115.929 103.242C116.545 104.561 117.277 106.406 117.511 107.373C118.009 109.307 118.771 110.156 120.031 110.156C121.291 110.156 122.052 109.307 122.55 107.373C122.785 106.406 123.517 104.561 124.132 103.242C125.48 100.459 127.062 98.8477 128.732 98.584C130.343 98.3496 131.252 97.793 131.574 96.8848C132.189 95.1855 131.105 93.9551 128.732 93.6035C127.062 93.3398 125.48 91.7285 124.132 88.9453C123.517 87.627 122.785 85.7812 122.55 84.8145C122.052 82.8809 121.291 82.0312 120.031 82.0312C119.591 82.0312 118.947 82.2656 118.595 82.5293ZM120.412 92.0508C120.47 92.2559 121.173 93.252 121.935 94.248L123.312 96.0938L121.965 97.8809C121.203 98.877 120.47 99.9023 120.324 100.166C120.06 100.605 120.002 100.605 119.738 100.166C119.591 99.9023 118.859 98.877 118.097 97.8809L116.75 96.0938L118.127 94.248C118.888 93.252 119.591 92.2559 119.65 92.0508C119.738 91.875 119.914 91.6992 120.031 91.6992C120.148 91.6992 120.324 91.875 120.412 92.0508Z" fill="#FE93B9" style="fill:#FE93B9;fill:color(display-p3 0.9961 0.5765 0.7255);fill-opacity:1;"/>
</svg>
