<svg width="23" height="25" viewBox="0 0 23 25" fill="none" xmlns="http://www.w3.org/2000/svg">
<path d="M5.27603 6.43414C5.10186 6.43414 4.91853 6.35414 4.7902 6.21414C4.52436 5.92414 4.52436 5.44414 4.7902 5.15414L8.1177 1.52414C8.38353 1.23414 8.82353 1.23414 9.08936 1.52414C9.3552 1.81414 9.3552 2.29414 9.08936 2.58414L5.76186 6.21414C5.62436 6.35414 5.4502 6.43414 5.27603 6.43414Z" fill="#393939" style="fill:#393939;fill:color(display-p3 0.2235 0.2235 0.2235);fill-opacity:1;"/>
<path d="M17.7608 6.43414C17.5866 6.43414 17.4124 6.36414 17.2749 6.21414L13.9474 2.58414C13.6816 2.29414 13.6816 1.81414 13.9474 1.52414C14.2133 1.23414 14.6533 1.23414 14.9191 1.52414L18.2466 5.15414C18.5124 5.44414 18.5124 5.92414 18.2466 6.21414C18.1183 6.35414 17.9349 6.43414 17.7608 6.43414Z" fill="#393939" style="fill:#393939;fill:color(display-p3 0.2235 0.2235 0.2235);fill-opacity:1;"/>
<path d="M19.0441 10.6543C18.9799 10.6543 18.9157 10.6543 18.8516 10.6543H18.6407H4.1849C3.54323 10.6643 2.8099 10.6643 2.27823 10.0843C1.85656 9.6343 1.66406 8.9343 1.66406 7.9043C1.66406 5.1543 3.50656 5.1543 4.38656 5.1543H18.6499C19.5299 5.1543 21.3724 5.1543 21.3724 7.9043C21.3724 8.9443 21.1799 9.6343 20.7582 10.0843C20.2816 10.6043 19.6399 10.6543 19.0441 10.6543ZM4.38656 9.1543H18.8607C19.2732 9.1643 19.6582 9.1643 19.7866 9.0243C19.8507 8.9543 19.9882 8.7143 19.9882 7.9043C19.9882 6.7743 19.7316 6.6543 18.6407 6.6543H4.38656C3.29573 6.6543 3.03906 6.7743 3.03906 7.9043C3.03906 8.7143 3.18573 8.9543 3.24073 9.0243C3.36906 9.1543 3.76323 9.1543 4.16656 9.1543H4.38656Z" fill="#393939" style="fill:#393939;fill:color(display-p3 0.2235 0.2235 0.2235);fill-opacity:1;"/>
<path d="M9.46484 18.3547C9.08901 18.3547 8.77734 18.0147 8.77734 17.6047V14.0547C8.77734 13.6447 9.08901 13.3047 9.46484 13.3047C9.84068 13.3047 10.1523 13.6447 10.1523 14.0547V17.6047C10.1523 18.0247 9.84068 18.3547 9.46484 18.3547Z" fill="#393939" style="fill:#393939;fill:color(display-p3 0.2235 0.2235 0.2235);fill-opacity:1;"/>
<path d="M13.6816 18.3547C13.3058 18.3547 12.9941 18.0147 12.9941 17.6047V14.0547C12.9941 13.6447 13.3058 13.3047 13.6816 13.3047C14.0575 13.3047 14.3691 13.6447 14.3691 14.0547V17.6047C14.3691 18.0247 14.0575 18.3547 13.6816 18.3547Z" fill="#393939" style="fill:#393939;fill:color(display-p3 0.2235 0.2235 0.2235);fill-opacity:1;"/>
<path d="M14.1681 22.8054H8.64057C5.3589 22.8054 4.62557 20.6754 4.3414 18.8254L3.0489 10.1754C2.98473 9.76542 3.2414 9.38542 3.61723 9.31542C3.99307 9.24542 4.3414 9.52542 4.40557 9.93542L5.69807 18.5754C5.9639 20.3454 6.5139 21.3054 8.64057 21.3054H14.1681C16.5239 21.3054 16.7897 20.4054 17.0922 18.6654L18.6322 9.91542C18.7056 9.50542 19.0631 9.23542 19.4389 9.32542C19.8147 9.40542 20.0531 9.79542 19.9797 10.2054L18.4397 18.9554C18.0822 20.9854 17.4864 22.8054 14.1681 22.8054Z" fill="#393939" style="fill:#393939;fill:color(display-p3 0.2235 0.2235 0.2235);fill-opacity:1;"/>
</svg>
