<svg width="25" height="25" viewBox="0 0 25 25" fill="none" xmlns="http://www.w3.org/2000/svg">
<path d="M3.04492 12.9414C3.04492 10.6117 3.04492 9.44684 3.42552 8.52799C3.93299 7.30285 4.90636 6.32948 6.1315 5.82201C7.05036 5.44141 8.21521 5.44141 10.5449 5.44141H13.5449C15.8746 5.44141 17.0395 5.44141 17.9583 5.82201C19.1835 6.32948 20.1568 7.30285 20.6643 8.52799C21.0449 9.44684 21.0449 10.6117 21.0449 12.9414V12.9414C21.0449 15.2711 21.0449 16.436 20.6643 17.3548C20.1568 18.58 19.1835 19.5533 17.9583 20.0608C17.0395 20.4414 15.8746 20.4414 13.5449 20.4414H10.5449C8.21521 20.4414 7.05036 20.4414 6.1315 20.0608C4.90636 19.5533 3.93299 18.58 3.42552 17.3548C3.04492 16.436 3.04492 15.2711 3.04492 12.9414V12.9414Z" stroke="black" stroke-opacity="0.8" style="stroke:black;stroke-opacity:0.8;" stroke-width="1.5" stroke-linejoin="round"/>
<path d="M3.04492 8.94141L6.51978 11.6439C8.8694 13.4713 10.0442 14.385 11.3862 14.5635C11.8237 14.6216 12.2669 14.6216 12.7044 14.5634C14.0464 14.385 15.2212 13.4712 17.5707 11.6437L21.0449 8.94141" stroke="black" stroke-opacity="0.8" style="stroke:black;stroke-opacity:0.8;" stroke-width="1.5" stroke-linejoin="round"/>
</svg>
