<svg width="32" height="32" viewBox="0 0 32 32" fill="none" xmlns="http://www.w3.org/2000/svg">
<path d="M20.7732 15.9999C20.7732 18.6399 18.6399 20.7732 15.9999 20.7732C13.3599 20.7732 11.2266 18.6399 11.2266 15.9999C11.2266 13.3599 13.3599 11.2266 15.9999 11.2266C18.6399 11.2266 20.7732 13.3599 20.7732 15.9999Z" stroke="#868686" style="stroke:#868686;stroke:color(display-p3 0.5255 0.5255 0.5255);stroke-opacity:1;" stroke-width="1.5" stroke-linecap="round" stroke-linejoin="round"/>
<path d="M15.9998 27.0276C20.7065 27.0276 25.0931 24.2543 28.1465 19.4543C29.3465 17.5743 29.3465 14.4143 28.1465 12.5343C25.0931 7.73427 20.7065 4.96094 15.9998 4.96094C11.2931 4.96094 6.90646 7.73427 3.85312 12.5343C2.65312 14.4143 2.65312 17.5743 3.85312 19.4543C6.90646 24.2543 11.2931 27.0276 15.9998 27.0276Z" stroke="#868686" style="stroke:#868686;stroke:color(display-p3 0.5255 0.5255 0.5255);stroke-opacity:1;" stroke-width="1.5" stroke-linecap="round" stroke-linejoin="round"/>
</svg>
