<svg width="151" height="150" viewBox="0 0 151 150" fill="none" xmlns="http://www.w3.org/2000/svg">
<path d="M53.8208 17.1384C53.8208 18.3982 53.7915 18.4568 52.9419 18.4568C52.1216 18.4568 52.063 18.5154 52.063 19.6286C52.063 20.7419 52.1216 20.8005 52.9712 20.8005C53.7622 20.8005 53.8501 20.8884 53.7622 21.5915C53.6743 22.3533 53.5571 22.4118 52.2974 22.4997C50.9204 22.5876 50.8911 22.6169 50.8911 23.613V24.6091H52.3853C53.8208 24.6091 53.8501 24.6384 53.7622 25.4001C53.6743 26.1911 53.6157 26.2204 51.7114 26.3083L49.7192 26.3962V27.3923V28.3884L51.7114 28.4763C53.6157 28.5642 53.6743 28.5935 53.7622 29.3552C53.8501 30.1462 53.8208 30.1755 52.3853 30.1755H50.8911V31.1716C50.8911 32.1677 50.9204 32.197 52.2974 32.2849C53.5571 32.3728 53.6743 32.4314 53.7622 33.1638C53.8501 33.8962 53.7622 33.9841 52.9712 33.9841C52.1216 33.9841 52.063 34.0427 52.063 35.156C52.063 36.2693 52.1216 36.3279 52.9419 36.3279H53.8208V40.5759V44.824H52.9712C51.0962 44.824 51.1841 43.6521 51.1841 66.3865V87.0115H48.5767C46.5552 87.0115 45.8521 87.1287 45.4712 87.4802C45.061 87.8904 45.0317 90.1462 45.0903 110.244C45.1782 131.279 45.2075 132.627 45.7056 133.359C46.9067 135.117 47.2583 135.205 54.1138 135.293C61.2329 135.41 62.1118 135.263 63.4595 133.74L64.3677 132.685V110.215C64.3677 93.1052 64.2798 87.6267 64.0161 87.363C63.7817 87.1287 62.6978 87.0115 61.0864 87.0115H58.5083V66.5623C58.5083 44.0037 58.5669 44.824 56.7212 44.824H55.8716V40.5759V36.3279H56.7505C57.5708 36.3279 57.6294 36.2693 57.6294 35.156C57.6294 34.0427 57.5708 33.9841 56.7212 33.9841C55.9302 33.9841 55.8423 33.8962 55.9302 33.1638C56.0181 32.4314 56.1353 32.3728 57.4243 32.2849C58.772 32.197 58.8013 32.1677 58.8013 31.1716V30.1755H57.3364C55.9009 30.1755 55.8716 30.1462 55.8716 29.2966V28.4177H57.7759H59.6802V27.3923V26.3669H57.7759H55.8716V25.488C55.8716 24.6384 55.9009 24.6091 57.3364 24.6091H58.8013V23.5837V22.5583H57.3364C55.9009 22.5583 55.8716 22.529 55.8716 21.6794C55.8716 20.8884 55.9595 20.8005 56.7505 20.8005C57.5708 20.8005 57.6294 20.7419 57.6294 19.6286C57.6294 18.5154 57.5708 18.4568 56.7505 18.4568C55.9009 18.4568 55.8716 18.3982 55.8716 17.1384C55.8716 15.8201 55.8716 15.8201 54.8462 15.8201C53.8208 15.8201 53.8208 15.8201 53.8208 17.1384ZM56.1646 67.0896V87.0115H54.8462H53.5278V67.0896V47.1677H54.8462H56.1646V67.0896ZM62.3169 110.537C62.3169 129.228 62.2583 131.777 61.8481 132.363C61.4087 133.008 61.2915 133.008 54.9341 133.008C49.3091 133.008 48.3716 132.949 47.9028 132.51C47.4048 132.07 47.3755 130.986 47.3755 110.683V89.3552H54.8462H62.3169V110.537Z" fill="#FE93B9" style="fill:#FE93B9;fill:color(display-p3 0.9961 0.5765 0.7255);fill-opacity:1;"/>
<path d="M101.575 25.9871C92.9907 26.8074 81.77 29.1219 75.5883 31.2898C69.6117 33.3992 67.8539 35.0398 67.6489 38.702C67.5317 40.6062 67.6196 40.9285 68.5864 42.8914C69.7875 45.323 72.102 47.7547 73.2446 47.7547C73.6547 47.7547 79.8657 45.909 87.102 43.6531C103.86 38.3797 106.174 37.7937 110.071 37.5887C117.366 37.2078 122.815 40.0496 134.123 50.0984C135.295 51.1531 136.174 51.7977 136.086 51.5633C132.454 42.159 130.168 38.0574 126.331 34.0145C122.053 29.5027 117.541 27.159 111.243 26.2215C108.723 25.8113 104.211 25.7234 101.575 25.9871ZM113.586 28.8582C120.5 30.7039 125.393 34.8348 129.875 42.5984C130.813 44.2684 130.901 44.2977 127.385 41.6609C120.823 36.7098 114.67 34.6883 108.489 35.45C104.768 35.8895 102.922 36.4168 87.6293 41.1922C80.1879 43.5066 73.8598 45.4109 73.5375 45.4109C72.7758 45.4109 70.6957 42.7742 70.0805 41.0457C69.2602 38.702 69.641 37.1199 71.3696 35.6551C74.0063 33.4285 85.8129 30.2938 97.9125 28.5652C101.985 28.0086 111.008 28.1551 113.586 28.8582Z" fill="#FE93B9" style="fill:#FE93B9;fill:color(display-p3 0.9961 0.5765 0.7255);fill-opacity:1;"/>
<path d="M19.6313 49.1309C19.3676 49.2188 19.2505 49.8926 19.2505 51.0059C19.2505 52.7344 19.2505 52.7344 18.3715 52.7344C17.5512 52.7344 17.4926 52.793 17.4926 53.9063C17.4926 55.0195 17.5512 55.0781 18.3715 55.0781C19.104 55.0781 19.2505 55.1953 19.2505 55.8106C19.2505 56.4258 19.104 56.543 18.3715 56.543C17.5512 56.543 17.4926 56.6016 17.4926 57.7149C17.4926 58.8281 17.5512 58.8867 18.3715 58.8867C19.104 58.8867 19.2505 59.0039 19.2505 59.6191C19.2505 60.3809 19.1333 60.4688 17.727 60.7617L16.9067 60.9375V96.709C16.9067 136.904 16.7016 133.623 19.104 134.766C20.188 135.293 20.9204 135.352 25.7251 135.352C31.7895 135.352 32.6098 135.146 33.811 133.33L34.4848 132.334V96.8555C34.4848 69.6387 34.3969 61.2598 34.1333 60.9961C33.9282 60.791 33.4008 60.6445 32.9614 60.6445C32.2583 60.6445 32.1411 60.5274 32.1411 59.7656C32.1411 58.9746 32.229 58.8867 33.02 58.8867C33.8403 58.8867 33.8989 58.8281 33.8989 57.7149C33.8989 56.6016 33.8403 56.543 33.02 56.543C32.2876 56.543 32.1411 56.4258 32.1411 55.8106C32.1411 55.1953 32.2876 55.0781 33.02 55.0781C33.8403 55.0781 33.8989 55.0195 33.8989 53.9063C33.8989 52.793 33.8403 52.7344 33.02 52.7344C32.1411 52.7344 32.1411 52.7051 32.1411 51.1816C32.1411 50.332 31.9946 49.4824 31.7895 49.2774C31.5258 49.0137 29.7973 48.9258 25.7251 48.9551C22.561 48.9551 19.8071 49.043 19.6313 49.1309ZM30.0317 51.9141L30.1196 52.7344H25.7251H21.3012V51.8555V50.9473L25.6372 51.0352L29.9438 51.1231L30.0317 51.9141ZM30.0903 55.8106V56.543H25.6958H21.3012V55.8106V55.0781H25.6958H30.0903V55.8106ZM30.0317 59.6777L29.9438 60.4981L25.6372 60.5859L21.3012 60.6738V59.7656V58.8867H25.7251H30.1196L30.0317 59.6777ZM32.2876 97.5C32.2876 131.484 32.2876 132.188 31.7309 132.598C31.2622 132.92 29.9145 133.008 25.52 133.008C20.0122 133.008 19.8657 132.979 19.4262 132.363C19.0161 131.777 18.9575 127.969 18.9575 97.207V62.6953L25.6372 62.7539L32.2876 62.8418V97.5Z" fill="#FE93B9" style="fill:#FE93B9;fill:color(display-p3 0.9961 0.5765 0.7255);fill-opacity:1;"/>
<path d="M96.0078 49.3652C89.123 50.625 83.5566 53.4375 79.1035 57.8906C77.2578 59.7363 74.0352 64.1016 74.0352 64.7461C74.0352 64.8926 75.002 65.3613 76.1738 65.8008C77.3164 66.2402 78.4004 66.709 78.5469 66.8262C78.8984 67.1191 76.4375 69.4922 75.1191 70.1074C74.5332 70.4004 74.0938 70.752 74.1523 70.8691C74.2402 71.0156 74.4453 71.4551 74.6211 71.8945L74.9141 72.6563L76.3496 71.9531C77.1406 71.543 78.5176 70.4004 79.4258 69.375L81.0957 67.5586L82.4727 67.9102C83.2344 68.1152 84.3477 68.4082 84.9629 68.584C85.5488 68.7305 86.0469 69.0234 86.0469 69.2285C86.0469 70.0781 84.2012 73.3301 82.7363 75.0586L81.0957 76.9922L81.8281 77.666L82.5313 78.3398L83.7324 77.168C85.4023 75.5566 87.1016 72.8906 87.7168 71.0156C88.2734 69.1992 88.0684 69.2578 91.9648 69.7559L94.5723 70.1074L94.3965 71.3086C93.9277 74.2969 92.6094 77.5781 90.8223 80.0684C89.7676 81.5625 89.7969 81.9727 91.0566 82.6465C91.4961 82.8516 91.7891 82.5586 92.9609 80.8301C94.6309 78.3105 95.9492 75 96.418 72.2168L96.7695 70.166L99.8457 70.0195C101.516 69.9316 103.039 69.9609 103.186 70.1074C103.596 70.459 103.508 78.7207 103.068 81.8262C102.863 83.2324 102.717 84.4629 102.775 84.4922C102.834 84.5508 103.303 84.6973 103.801 84.7852L104.738 84.9902L105.119 82.8516C105.383 81.5332 105.529 78.5449 105.529 75.0879V69.4629L107.727 68.9648C108.928 68.7012 110.07 68.4375 110.246 68.3496C110.48 68.2617 110.803 68.877 111.096 69.9316C111.359 70.8691 111.975 72.4512 112.443 73.5059C113.352 75.5273 116.105 79.8047 117.014 80.625C117.541 81.0938 117.6 81.0938 118.361 80.4785L119.152 79.834L117.805 78.0762C117.072 77.1094 115.988 75.4688 115.402 74.4141C114.201 72.3047 112.619 67.9395 112.941 67.6172C113.059 67.5293 113.996 67.0898 115.051 66.6797L116.955 65.8887L117.541 66.709C119.387 69.3164 123.02 72.2754 125.744 73.418C126.945 73.916 127.209 73.7988 127.502 72.6563C127.648 71.9824 127.531 71.8359 126.125 71.1621C124.016 70.1074 121.643 68.291 120.295 66.6504C119.65 65.8887 119.152 65.1856 119.152 65.0684C119.152 64.9512 120.354 64.1016 121.818 63.1934L124.484 61.5234L125.539 62.4316C126.916 63.6328 129.523 64.834 130.842 64.8633C131.809 64.8926 131.896 64.8047 131.984 63.9844C132.072 63.1641 131.984 63.0762 130.49 62.6074C129.641 62.3438 128.293 61.6992 127.502 61.1719L126.096 60.2344L127.531 58.9746L128.967 57.7441L128.176 56.9531L127.414 56.1621L125.686 57.627C123.254 59.7363 120.324 61.6699 117.131 63.2813C106.262 68.7012 94.3379 69.3457 81.0664 65.1563C79.2207 64.5703 77.5801 63.9844 77.4336 63.8672C77.082 63.5156 78.8691 61.1719 81.125 59.0039C89.5039 50.9473 102.658 48.8965 116.574 53.4375L119.475 54.375L119.855 53.4961C120.061 52.9981 120.207 52.5 120.148 52.4121C119.973 52.0899 114.523 50.4492 111.535 49.7754C107.902 48.9844 99.2891 48.75 96.0078 49.3652Z" fill="#FE93B9" style="fill:#FE93B9;fill:color(display-p3 0.9961 0.5765 0.7255);fill-opacity:1;"/>
<path d="M87.0141 99.257C86.8384 99.3742 86.4282 100.136 86.1352 100.927C85.6372 102.245 85.4614 102.421 84.143 102.919C83.352 103.212 82.5903 103.593 82.5024 103.769C82.0923 104.443 82.6196 105.175 83.7622 105.468C85.227 105.878 85.9302 106.581 86.3403 108.046C86.897 110.126 88.0688 109.98 88.8891 107.724C89.3872 106.318 89.5337 106.171 90.9399 105.673C91.7602 105.351 92.5219 104.911 92.6098 104.677C92.9028 103.974 92.2583 103.212 91.2329 103.007C90.0024 102.773 89.0356 101.806 88.8012 100.546C88.6841 100.019 88.3618 99.462 88.0688 99.3156C87.4536 98.964 87.4536 98.964 87.0141 99.257ZM88.0981 103.886C88.4204 104.237 88.3911 104.413 88.0102 104.823C87.5415 105.263 87.4829 105.263 87.0141 104.823C86.6333 104.413 86.604 104.237 86.9262 103.886C87.1313 103.622 87.395 103.417 87.5122 103.417C87.6294 103.417 87.893 103.622 88.0981 103.886Z" fill="#FE93B9" style="fill:#FE93B9;fill:color(display-p3 0.9961 0.5765 0.7255);fill-opacity:1;"/>
<path d="M117.6 103.535C117.365 103.769 116.955 104.853 116.691 105.937C115.607 110.214 113.703 112.119 109.484 113.085C107.287 113.584 106.848 113.876 106.848 114.697C106.848 115.517 107.287 115.81 109.484 116.308C113.879 117.334 115.52 119.062 116.926 124.248C117.775 127.265 119.035 126.855 120.002 123.222C121.086 119.091 122.697 117.539 126.975 116.337C129.582 115.634 129.699 115.576 129.699 114.697C129.699 113.818 129.582 113.759 126.975 113.056C122.727 111.884 121.115 110.302 120.031 106.289C119.182 103.095 118.654 102.509 117.6 103.535ZM119.006 109.863C119.621 111.24 121.877 113.437 123.371 114.169L124.426 114.668L123.02 115.459C121.35 116.425 119.709 118.095 118.947 119.619L118.391 120.761L117.336 119.033C116.076 116.982 115.637 116.572 113.645 115.488L112.092 114.638L113.322 114.111C114.904 113.378 116.838 111.474 117.57 109.921C117.863 109.248 118.215 108.691 118.303 108.691C118.391 108.691 118.713 109.218 119.006 109.863Z" fill="#FE93B9" style="fill:#FE93B9;fill:color(display-p3 0.9961 0.5765 0.7255);fill-opacity:1;"/>
</svg>
