<svg width="150" height="150" viewBox="0 0 150 150" fill="none" xmlns="http://www.w3.org/2000/svg">
<path d="M87.3881 37.7745C86.8867 38.5396 86.8902 38.607 87.5013 39.8648C88.2288 41.3625 88.31 42.8774 87.7231 44.0123C87.4978 44.448 86.608 45.4714 85.7459 46.2868L84.1788 47.769L77.7656 47.9473C63.9779 48.3305 54.1429 50.9832 51.6691 54.9862C51.1429 55.8372 51.0703 56.4314 51.0703 59.877V63.7989L49.83 64.6752C49.0961 65.1938 48.2322 66.1998 47.7142 67.1391L46.8388 68.7264L46.7489 85.2147C46.6996 94.2833 46.7387 102.25 46.8361 102.918C47.062 104.47 48.8264 106.527 50.9693 107.736C52.3534 108.518 52.5294 108.724 52.5294 109.563C52.5294 112.162 54.6834 118.101 56.7703 121.257C58.4156 123.745 61.8656 127.267 64.2606 128.903L66.309 130.302L59.5683 130.38L52.8277 130.459L52.3567 131.178C51.9712 131.766 51.9043 132.552 51.9887 135.5C52.0861 138.915 52.1381 139.179 52.9747 140.532C53.5219 141.417 54.4015 142.296 55.2863 142.843L56.7148 143.726L79.1515 143.806C93.7677 143.859 101.974 143.782 102.696 143.588C104.256 143.168 105.621 142.174 106.653 140.706C107.52 139.473 107.541 139.359 107.639 135.433C107.725 131.991 107.67 131.35 107.253 130.934C106.829 130.51 105.938 130.448 100.223 130.448C96.6227 130.448 93.6773 130.338 93.6773 130.203C93.6773 130.069 93.9796 129.82 94.3491 129.652C95.6273 129.07 99.4368 125.791 100.873 124.037C104.468 119.648 105.963 116.19 107.279 109.221C107.355 108.818 107.852 108.339 108.578 107.968C109.225 107.638 110.282 106.891 110.927 106.309C113.22 104.238 113.084 105.493 113.084 86.382C113.084 66.7332 113.194 67.6306 110.476 65.1465L108.93 63.7332L108.776 58.7882C108.604 53.2758 108.246 51.496 106.668 48.2984C103.581 42.0425 97.188 37.8086 89.8432 37.1561C87.9749 36.99 87.8877 37.0119 87.3881 37.7745ZM85.4419 82.7584C93.9732 84.9325 100.4 91.0478 103.061 99.5246C103.656 101.418 103.745 102.296 103.745 106.226C103.745 111.213 103.32 113.225 101.495 116.868C96.8871 126.064 86.8753 131.501 76.973 130.183C61.1319 128.075 51.628 111.998 57.5054 97.2521C60.6776 89.293 67.8852 83.6546 76.6053 82.311C78.7978 81.9731 83.2438 82.1981 85.4419 82.7584ZM109.263 69.0028C109.671 69.8622 109.728 71.9826 109.728 86.3307V102.68L108.83 103.577C108.336 104.071 107.829 104.475 107.703 104.475C107.576 104.475 107.309 103.458 107.109 102.214C105.352 91.3058 97.7734 82.7135 87.2063 79.6478C84.5255 78.8701 77.9381 78.5494 75.2168 79.0642C67.4897 80.5256 60.9385 84.8946 56.6705 91.4324C54.468 94.8063 52.5452 100.217 52.5338 103.072C52.528 104.524 52.1109 104.686 51.0671 103.642L50.1948 102.769V86.3952C50.1948 69.6036 50.2607 68.5318 51.3338 67.8684C51.5118 67.7584 52.2221 68.1314 52.9123 68.6972C55.5907 70.8918 60.3951 72.5359 67.2137 73.5909C70.7115 74.132 72.6177 74.2338 79.5236 74.2469C87.921 74.2633 90.6177 74.0491 96.1496 72.927C101.264 71.8898 104.739 70.4855 106.853 68.6021C108.251 67.3571 108.502 67.3992 109.263 69.0028ZM94.8989 41.8892C99.9875 43.9207 103.657 48.1551 104.901 53.4311C105.546 56.1681 105.487 57.5529 104.694 58.2973C102.863 60.0159 97.3946 61.7228 90.759 62.6473C85.8294 63.334 73.6826 63.3381 68.9068 62.6543C62.0375 61.6709 55.7495 59.5723 54.6662 57.9016C54.3198 57.3675 54.3458 57.1948 54.874 56.5233C56.7005 54.2012 66.1727 51.7472 73.9788 51.5736L76.8971 51.5085L75.1461 52.1888C72.4718 53.2277 67.2245 54.505 63.288 55.0758C60.2486 55.5165 59.6851 55.6825 59.3156 56.246C58.7891 57.0497 59.0322 58.234 59.8091 58.6496C60.1934 58.8553 61.0873 58.8544 62.6509 58.6469C74.0057 57.1396 84.426 52.9437 88.9184 48.0699C90.5626 46.2862 91.3771 44.5881 91.5609 42.5604C91.7109 40.9081 91.7337 40.8702 92.477 41.0464C92.8963 41.1457 93.986 41.525 94.8989 41.8892ZM104.425 134.818C104.616 136.821 104.185 138.384 103.159 139.41L102.188 140.381L79.6998 140.303L57.2118 140.224L56.4125 139.425C55.7258 138.738 55.5968 138.337 55.4976 136.584C55.4343 135.46 55.4588 134.342 55.5525 134.098C55.7031 133.706 58.511 133.664 80.0258 133.73L104.329 133.804L104.425 134.818ZM56.0244 62.8863C61.2849 65.5519 73.7889 67.14 84.7815 66.5386C92.8368 66.0979 98.749 64.9907 103.335 63.0638L105.35 62.2169V63.7822C105.35 65.542 104.921 66.1335 102.875 67.187C97.706 69.8505 88.9815 71.099 77.3918 70.834C66.4616 70.5839 58.5099 68.8925 55.2288 66.1201C54.3744 65.3978 54.2804 65.162 54.2804 63.7393C54.2804 62.8709 54.3504 62.1603 54.4359 62.1603C54.5217 62.1603 55.2364 62.4868 56.0244 62.8863Z" fill="#FE93B9" style="fill:#FE93B9;fill:color(display-p3 0.9961 0.5765 0.7255);fill-opacity:1;"/>
<path d="M22.5904 40.276C18.7526 43.0072 15.3172 45.5753 14.9559 45.983C14.3042 46.7187 14.2993 46.7949 14.2993 56.0088V65.293L12.9309 65.4471C12.0904 65.542 11.4148 65.8034 11.1799 66.1247C10.8814 66.5327 10.7973 68.9143 10.7973 76.9519V87.2561H8.59548C6.6379 87.2561 6.3128 87.3369 5.6664 87.983L4.93945 88.71L5.02321 110.381L5.10667 132.052L5.77759 133.712C6.61338 135.78 8.67661 137.993 10.7973 139.097L12.4024 139.931H23.0541C33.6131 139.931 33.719 139.925 35.224 139.245C37.0497 138.419 39.4643 135.964 40.3613 134.022C41.0002 132.638 41.0019 132.589 41.0839 110.456L41.1662 88.2775L40.5408 87.7668C40.0707 87.383 39.3802 87.2561 37.7591 87.2561H35.6028V77.0289V66.8015L34.8863 66.0854C34.3619 65.5606 33.8539 65.3689 32.9895 65.3689H31.809V50.8227C31.809 37.1012 31.7787 36.2491 31.2753 35.7935C30.9817 35.528 30.4777 35.3105 30.1549 35.3105C29.8322 35.3105 26.4283 37.5451 22.5904 40.276ZM37.6456 115.573C37.6456 128.387 37.5662 131.823 37.2522 132.572C36.6385 134.036 35.4239 135.3 33.9181 136.042C32.5622 136.709 32.3807 136.721 23.346 136.721C13.1652 136.721 12.3519 136.599 10.6465 134.819L9.8127 133.949H16.0456C21.436 133.949 22.3508 133.883 22.8122 133.466C23.3159 133.01 23.346 132.154 23.346 118.307V103.631L22.6972 103.177C22.1553 102.798 20.9317 102.723 15.2556 102.723H8.4627V101.118V99.5129H23.0541H37.6456V115.573ZM32.1008 78.0635V87.2561H23.2001H14.2993V78.0635V68.8709H23.2001H32.1008V78.0635ZM20.0661 118.409L20.1423 130.447H14.3025H8.4627V118.33V106.213L14.2263 106.292L19.9899 106.371L20.0661 118.409ZM23.0574 65.3689H17.8012V56.6549V47.9412L22.9812 44.2288L28.1611 40.5165L28.2373 52.9426L28.3132 65.3689H23.0574ZM37.6456 93.3845V96.0109H23.0541H8.4627V93.3845V90.758H23.0541H37.6456V93.3845Z" fill="#FE93B9" style="fill:#FE93B9;fill:color(display-p3 0.9961 0.5765 0.7255);fill-opacity:1;"/>
<path d="M122.045 33.5806C117.557 34.1633 112.936 35.8557 109.213 38.2799C108.009 39.0637 107.322 39.7238 107.199 40.2147C107.051 40.8033 107.962 42.8639 111.537 50.0274L116.061 59.0949L115.352 60.4081C113.878 63.1379 114.915 66.7396 117.611 68.2548L118.774 68.9085V103.706V138.504L119.534 140.028C120.767 142.502 123.158 143.929 126.07 143.929C126.966 143.929 128.164 143.736 128.73 143.499C130.164 142.9 131.822 141.375 132.58 139.959L133.22 138.764L133.297 103.844L133.375 68.9234L134.351 68.3473C137.192 66.6713 138.202 62.8609 136.533 60.1168L135.924 59.1153L140.518 49.8882C144.61 41.6683 145.073 40.59 144.763 40.0095C144.571 39.6512 143.506 38.771 142.397 38.0531C136.67 34.3487 129.04 32.6718 122.045 33.5806ZM129.864 108.589C129.864 141.04 130.012 138.869 127.712 140.09C126.761 140.594 126.225 140.7 125.405 140.546C123.973 140.278 122.652 139.112 122.286 137.797C122.092 137.097 121.987 126.752 121.986 108.195L121.984 79.6688H125.924H129.864V108.589ZM132.928 37.6262C135.143 38.204 139.306 40.0177 140.471 40.9133C140.982 41.3056 140.799 41.7512 137.039 49.2681L133.067 57.2085L126.035 57.1303L119.002 57.0521L115.1 49.4645C112.953 45.2914 111.195 41.661 111.192 41.3969C111.186 40.8661 114.913 38.9242 117.561 38.0785C122.08 36.6351 128.414 36.4487 132.928 37.6262ZM132.487 60.9194C134.158 61.7563 134.414 63.7665 133.015 65.0692C132.418 65.6263 132.006 65.661 126.002 65.661H119.623L118.907 64.9446C117.576 63.6135 118.135 61.2748 119.942 60.6141C120.182 60.5263 122.874 60.444 125.924 60.4317C130.65 60.4125 131.619 60.4843 132.487 60.9194ZM129.864 72.6649V76.1668H125.924H121.984V72.6649V69.1629H125.924H129.864V72.6649Z" fill="#FE93B9" style="fill:#FE93B9;fill:color(display-p3 0.9961 0.5765 0.7255);fill-opacity:1;"/>
<path d="M77.6269 84.8256C73.6761 85.3307 69.4239 87.0835 66.4849 89.4178C61.5445 93.3417 58.3662 99.9213 58.3662 106.225C58.3662 119.074 69.9343 129.268 82.5492 127.535C87.604 126.84 91.3989 124.909 95.1822 121.107C97.2997 118.979 97.9207 118.125 99.0241 115.825C100.623 112.494 101.265 109.743 101.265 106.225C101.265 102.67 100.62 99.9324 98.9969 96.5945C97.8536 94.2435 97.2468 93.4208 95.0065 91.184C92.0564 88.2385 89.2665 86.5666 85.6105 85.5534C83.4822 84.9636 79.4327 84.5945 77.6269 84.8256ZM85.2145 88.9766C89.1314 90.2128 92.8271 93.0566 95.1136 96.5942C98.8003 102.298 98.7953 110.159 95.1019 115.874C90.0293 123.722 80.1623 126.475 71.7903 122.38C68.575 120.806 65.2718 117.433 63.686 114.104C63.0361 112.74 62.3613 110.928 62.1862 110.077C61.7336 107.877 61.7929 104.017 62.3103 101.982C63.9617 95.4852 69.5041 90.021 75.925 88.5595C78.3944 87.9972 82.7284 88.1918 85.2145 88.9766Z" fill="#FE93B9" style="fill:#FE93B9;fill:color(display-p3 0.9961 0.5765 0.7255);fill-opacity:1;"/>
<path d="M79.1633 105.428C70.4884 114.103 69.4551 115.235 69.4551 116.063C69.4551 117.014 70.2903 117.899 71.188 117.899C71.4278 117.899 76.0606 113.469 81.4831 108.055C91.8769 97.6778 92.1106 97.381 90.8085 96.2026C89.5679 95.0799 89.2951 95.2959 79.1633 105.428Z" fill="#FE93B9" style="fill:#FE93B9;fill:color(display-p3 0.9961 0.5765 0.7255);fill-opacity:1;"/>
<path d="M74.4857 100.758C71.5271 103.723 70.623 104.805 70.623 105.382C70.623 106.249 71.4317 107.101 72.2552 107.101C72.5911 107.101 74.385 105.533 76.6826 103.231C80.7209 99.184 81.1621 98.4212 80.0868 97.3458C79.1208 96.3798 78.4423 96.7931 74.4857 100.758Z" fill="#FE93B9" stroke="#FE93B9" style="fill:#FE93B9;fill:color(display-p3 0.9961 0.5765 0.7255);fill-opacity:1;stroke:#FE93B9;stroke:color(display-p3 0.9961 0.5765 0.7255);stroke-opacity:1;" stroke-width="1.33333"/>
<path d="M83.0705 25.6314C82.3494 26.4281 82.4588 27.6264 83.3028 28.1794C83.8865 28.562 84.6942 28.63 87.7042 28.5509C90.9513 28.4654 91.4399 28.3863 91.8044 27.8872C92.3723 27.1095 92.3226 26.1585 91.6841 25.5806C91.2452 25.1832 90.4771 25.0977 87.3519 25.0977C84.0426 25.0977 83.4913 25.1665 83.0705 25.6314Z" fill="#FE93B9" style="fill:#FE93B9;fill:color(display-p3 0.9961 0.5765 0.7255);fill-opacity:1;"/>
<path d="M129.179 17.1685C128.587 17.8228 128.561 18.6723 129.11 19.4244C129.476 19.9251 129.963 20.0019 133.318 20.0865C136.841 20.1752 137.157 20.1388 137.72 19.5758C138.469 18.827 138.501 17.7583 137.793 17.1177C137.354 16.7203 136.586 16.6348 133.461 16.6348C130.151 16.6348 129.6 16.7036 129.179 17.1685Z" fill="#FE93B9" style="fill:#FE93B9;fill:color(display-p3 0.9961 0.5765 0.7255);fill-opacity:1;"/>
<path d="M124.802 21.546C124.405 21.9849 124.319 22.753 124.319 25.8782C124.319 29.1876 124.388 29.7388 124.853 30.1596C125.508 30.7521 126.357 30.778 127.109 30.2285C127.622 29.8532 127.675 29.4371 127.675 25.8274C127.675 22.2178 127.622 21.8017 127.109 21.4264C126.331 20.8579 125.38 20.9072 124.802 21.546Z" fill="#FE93B9" style="fill:#FE93B9;fill:color(display-p3 0.9961 0.5765 0.7255);fill-opacity:1;"/>
<path d="M11.9649 20.6193C10.7815 21.074 10.4319 22.6335 11.3313 23.4475C11.7702 23.8449 12.5383 23.9304 15.6635 23.9304C18.9729 23.9304 19.5241 23.8616 19.945 23.3967C20.5371 22.7424 20.5633 21.8929 20.0144 21.1408C19.6485 20.6395 19.1865 20.5674 16.0018 20.5128C14.0223 20.479 12.2057 20.5268 11.9649 20.6193Z" fill="#FE93B9" style="fill:#FE93B9;fill:color(display-p3 0.9961 0.5765 0.7255);fill-opacity:1;"/>
<path d="M114.337 16.9996C113.468 17.6821 113.423 18.6058 114.22 19.4022C114.924 20.1061 115.102 20.1367 118.483 20.1367C121.864 20.1367 122.042 20.1061 122.746 19.4022C123.281 18.8667 123.428 18.4914 123.287 18.016C122.924 16.7947 122.368 16.6348 118.483 16.6348C115.979 16.6348 114.652 16.7515 114.337 16.9996Z" fill="#FE93B9" style="fill:#FE93B9;fill:color(display-p3 0.9961 0.5765 0.7255);fill-opacity:1;"/>
<path d="M22.0157 10.3359C21.5029 10.7112 21.4492 11.1274 21.4492 14.737C21.4492 18.3466 21.5029 18.7628 22.0157 19.1381C22.7931 19.7066 23.7442 19.6572 24.3223 19.0184C24.7197 18.5795 24.8053 17.8114 24.8053 14.6862C24.8053 11.3769 24.7364 10.8256 24.2715 10.4048C23.6169 9.81239 22.7674 9.78642 22.0157 10.3359Z" fill="#FE93B9" style="fill:#FE93B9;fill:color(display-p3 0.9961 0.5765 0.7255);fill-opacity:1;"/>
<path d="M22.5396 25.1287C21.5626 25.4917 21.3037 26.5306 21.3037 30.0915C21.3037 33.1043 21.3466 33.3384 22.0202 34.0119C22.8889 34.881 23.4519 34.9149 24.222 34.1447C24.745 33.6218 24.8057 33.1721 24.8057 29.823C24.8057 26.0476 24.6408 25.3709 23.6383 25.0312C23.3976 24.9498 22.9032 24.9936 22.5396 25.1287Z" fill="#FE93B9" style="fill:#FE93B9;fill:color(display-p3 0.9961 0.5765 0.7255);fill-opacity:1;"/>
<path d="M125.487 6.06434C124.496 6.36317 124.319 7.07728 124.319 10.7984C124.319 14.6838 124.479 15.2394 125.701 15.6022C126.176 15.7434 126.551 15.5969 127.087 15.0614C127.789 14.3596 127.821 14.174 127.821 10.8766C127.821 8.31405 127.711 7.26872 127.393 6.81405C126.927 6.14985 126.179 5.85539 125.487 6.06434Z" fill="#FE93B9" style="fill:#FE93B9;fill:color(display-p3 0.9961 0.5765 0.7255);fill-opacity:1;"/>
<path d="M67.9962 25.6813C67.2261 26.4514 67.2599 27.0144 68.129 27.8832C68.8086 28.5631 69.0214 28.5996 72.2954 28.5996C76.2153 28.5996 77.0429 28.2952 77.0429 26.853C77.0429 25.292 76.5234 25.0977 72.3529 25.0977C68.9689 25.0977 68.5197 25.1578 67.9962 25.6813Z" fill="#FE93B9" style="fill:#FE93B9;fill:color(display-p3 0.9961 0.5765 0.7255);fill-opacity:1;"/>
<path d="M79.3773 14.5214C78.3766 14.8343 78.21 15.535 78.21 19.4265C78.21 22.1548 78.3162 23.3595 78.5747 23.5664C79.3641 24.1979 80.1716 24.2347 80.8688 23.6711C81.5231 23.1418 81.571 22.8943 81.6474 19.6518C81.7338 15.9759 81.4872 14.9767 80.3987 14.5912C80.0777 14.4777 79.618 14.4461 79.3773 14.5214Z" fill="#FE93B9" style="fill:#FE93B9;fill:color(display-p3 0.9961 0.5765 0.7255);fill-opacity:1;"/>
<path d="M78.6929 30.0094C78.2955 30.4483 78.21 31.2164 78.21 34.3416C78.21 37.6509 78.2788 38.2022 78.7437 38.623C79.3951 39.2125 80.2472 39.242 80.9879 38.7003C81.4539 38.3595 81.5616 37.8225 81.6611 35.3507C81.7942 32.0341 81.6033 30.5758 80.9499 29.9227C80.3453 29.318 79.2816 29.3589 78.6929 30.0094Z" fill="#FE93B9" style="fill:#FE93B9;fill:color(display-p3 0.9961 0.5765 0.7255);fill-opacity:1;"/>
<path d="M26.9139 20.7198C26.1884 21.0244 25.6715 22.0721 25.9056 22.7631C26.2444 23.7629 26.9238 23.9305 30.6417 23.9305C33.1453 23.9305 34.4725 23.8137 34.788 23.5657C35.5648 22.9549 35.6708 22.0362 35.0524 21.2716C34.5215 20.6156 34.2843 20.5706 31.033 20.5079C29.1323 20.4711 27.2789 20.5665 26.9139 20.7198Z" fill="#FE93B9" style="fill:#FE93B9;fill:color(display-p3 0.9961 0.5765 0.7255);fill-opacity:1;"/>
</svg>
