<svg width="25" height="25" viewBox="0 0 25 25" fill="none" xmlns="http://www.w3.org/2000/svg">
<path d="M9.79492 10.5436C9.79492 9.34915 10.8023 8.38086 12.0449 8.38086C13.2876 8.38086 14.2949 9.34915 14.2949 10.5436C14.2949 11.2648 13.9276 11.9036 13.363 12.2966C13.05 12.5144 12.6739 12.6439 12.4094 12.9187C11.7843 13.5683 11.6155 14.5494 12.0626 15.3809M21.0449 12.8809C21.0449 17.8514 17.0155 21.8809 12.0449 21.8809C7.07436 21.8809 3.04492 17.8514 3.04492 12.8809C3.04492 7.9103 7.07436 3.88086 12.0449 3.88086C17.0155 3.88086 21.0449 7.9103 21.0449 12.8809Z" stroke="black" stroke-opacity="0.8" style="stroke:black;stroke-opacity:0.8;" stroke-width="1.5" stroke-linecap="round" stroke-linejoin="round"/>
</svg>
