<svg width="25" height="25" viewBox="0 0 25 25" fill="none" xmlns="http://www.w3.org/2000/svg">
<path d="M5.67901 8.31904C8.33047 5.66758 9.6562 4.34185 11.2608 4.0877C11.779 4.00563 12.3069 4.00563 12.8251 4.0877C14.4297 4.34185 15.7555 5.66758 18.4069 8.31904V8.31904C19.5613 9.4734 20.1385 10.0506 20.498 10.7562C20.6169 10.9896 20.7173 11.2319 20.7983 11.4811C21.043 12.2342 21.043 13.0505 21.043 14.683V18.9551C21.043 20.6119 19.6998 21.9551 18.043 21.9551V21.9551C16.3861 21.9551 15.043 20.6119 15.043 18.9551V17.9551C15.043 16.2982 13.6998 14.9551 12.043 14.9551V14.9551C10.3861 14.9551 9.04297 16.2982 9.04297 17.9551V18.9551C9.04297 20.6119 7.69982 21.9551 6.04297 21.9551V21.9551C4.38611 21.9551 3.04297 20.6119 3.04297 18.9551V14.683C3.04297 13.0505 3.04297 12.2342 3.28769 11.4811C3.36863 11.2319 3.46902 10.9896 3.58794 10.7562C3.94746 10.0506 4.52464 9.4734 5.67901 8.31904V8.31904Z" stroke="#F3F3F3" style="stroke:#F3F3F3;stroke:color(display-p3 0.9529 0.9529 0.9529);stroke-opacity:1;" stroke-width="1.5" stroke-linejoin="round"/>
</svg>
