<svg width="24" height="24" viewBox="0 0 24 24" fill="none" xmlns="http://www.w3.org/2000/svg">
<g clip-path="url(#clip0_330_18935)">
<path d="M15.9441 6.8528C14.1527 5.75272 13.9321 4.5238 13.9321 2.89887C13.9321 2.12949 14.11 1.40171 14.4265 0.754102C14.1957 0.720695 13.9599 0.703125 13.7199 0.703125C11.0189 0.703125 8.82923 2.89273 8.82923 5.5938V10.754C8.82923 11.5283 8.20154 12.156 7.42719 12.156C6.65288 12.156 6.02514 11.5283 6.02514 10.754V8.28727C4.35059 9.87204 3.30566 12.1154 3.30566 14.603C3.30566 19.4049 7.19831 23.2975 12.0001 23.2975C16.802 23.2975 20.6946 19.4048 20.6946 14.603C20.6946 11.2211 18.7637 8.29022 15.9443 6.85257" stroke="#393939" style="stroke:#393939;stroke:color(display-p3 0.2235 0.2235 0.2235);stroke-opacity:1;" stroke-width="1.5" stroke-miterlimit="10" stroke-linecap="round" stroke-linejoin="round"/>
<path d="M15.2506 12.8691L8.75 19.3697" stroke="#393939" style="stroke:#393939;stroke:color(display-p3 0.2235 0.2235 0.2235);stroke-opacity:1;" stroke-width="1.5" stroke-miterlimit="10" stroke-linecap="round" stroke-linejoin="round"/>
<circle cx="14.0026" cy="18.1208" r="0.702804" fill="#393939" style="fill:#393939;fill:color(display-p3 0.2235 0.2235 0.2235);fill-opacity:1;"/>
<circle cx="10.026" cy="14.1462" r="0.702804" fill="#393939" style="fill:#393939;fill:color(display-p3 0.2235 0.2235 0.2235);fill-opacity:1;"/>
</g>
<defs>
<clipPath id="clip0_330_18935">
<rect width="24" height="24" fill="white" style="fill:white;fill-opacity:1;"/>
</clipPath>
</defs>
</svg>
