<svg width="18" height="18" viewBox="0 0 18 18" fill="none" xmlns="http://www.w3.org/2000/svg">
<path d="M8.99902 0C11.4431 2.89168e-06 11.7491 0.0110054 12.709 0.0546875C13.6668 0.0985727 14.3209 0.250184 14.8945 0.472656C15.487 0.702343 15.9877 1.01012 16.4883 1.51074C16.9889 2.01094 17.2967 2.51263 17.5273 3.10449C17.7486 3.67675 17.9003 4.33093 17.9453 5.28906C17.9884 6.24906 18 6.55581 18 9C18 11.4439 17.9884 11.7503 17.9453 12.71C17.9003 13.6676 17.7486 14.3221 17.5273 14.8945C17.2967 15.4863 16.9889 15.989 16.4883 16.4893C15.9884 16.9896 15.4871 17.2975 14.8955 17.5273C14.3229 17.7499 13.6681 17.9024 12.71 17.9463C11.75 17.99 11.4441 18 9 18C6.55594 18 6.24905 17.99 5.28906 17.9463C4.33115 17.9024 3.67711 17.7499 3.10449 17.5273C2.51303 17.2975 2.01072 16.9897 1.51074 16.4893C1.0103 15.989 0.702721 15.4865 0.472656 14.8945C0.250279 14.3223 0.0987504 13.6681 0.0546875 12.71C0.0111952 11.7501 0 11.4441 0 9C2.86393e-07 6.55599 0.0107815 6.24889 0.0537109 5.28906C0.0968364 4.3313 0.249529 3.67694 0.472656 3.10449C0.703222 2.51293 1.01036 2.01085 1.51074 1.51074C2.011 1.0103 2.51353 0.702534 3.10547 0.472656C3.67772 0.250092 4.33191 0.0985629 5.29004 0.0546875C6.24964 0.0110187 6.5566 5.30567e-06 8.99902 0Z" fill="#393939" style="fill:#393939;fill:color(display-p3 0.2235 0.2235 0.2235);fill-opacity:1;"/>
<path d="M8.19531 1.62305C8.43475 1.62267 8.70188 1.62305 9.00195 1.62305C11.4047 1.62305 11.69 1.63169 12.6387 1.6748C13.5159 1.71492 13.9923 1.86219 14.3096 1.98535C14.7296 2.14848 15.0299 2.3432 15.3447 2.6582C15.6596 2.97312 15.8541 3.27346 16.0176 3.69336C16.1408 4.01024 16.2882 4.48683 16.3281 5.36426C16.3712 6.31259 16.3799 6.59793 16.3799 8.99902C16.3799 11.4006 16.3712 11.6863 16.3281 12.6348C16.288 13.5122 16.1408 13.9888 16.0176 14.3057C15.8545 14.7256 15.6597 15.0251 15.3447 15.3398C15.0297 15.6548 14.7298 15.8496 14.3096 16.0127C13.9927 16.1364 13.5158 16.2831 12.6387 16.3232C11.6902 16.3664 11.4047 16.375 9.00195 16.375C6.59899 16.375 6.31396 16.3664 5.36523 16.3232C4.48795 16.2827 4.01175 16.1359 3.69434 16.0127C3.2744 15.8496 2.97413 15.6548 2.65918 15.3398C2.34418 15.0248 2.14885 14.7249 1.98535 14.3047C1.86221 13.9879 1.71573 13.5116 1.67578 12.6348C1.63266 11.686 1.62402 11.4005 1.62402 8.99707C1.62402 6.59382 1.63266 6.31007 1.67578 5.36133C1.71592 4.48399 1.86218 4.00765 1.98535 3.69043C2.14848 3.27043 2.34418 2.97028 2.65918 2.65527C2.97413 2.34035 3.2744 2.1459 3.69434 1.98242C4.01156 1.85868 4.48786 1.7122 5.36523 1.67188C6.19549 1.63437 6.51792 1.62297 8.19531 1.62109V1.62305ZM8.7666 4.38477C6.32443 4.50832 4.38186 6.52813 4.38184 9.00098C4.38184 11.5534 6.45146 13.622 9.00391 13.6221C11.5564 13.6221 13.625 11.5534 13.625 9.00098C13.625 6.44858 11.5563 4.37898 9.00391 4.37891L8.7666 4.38477ZM13.6943 3.125C13.1499 3.18024 12.7246 3.64003 12.7246 4.19922C12.7249 4.79526 13.2086 5.27832 13.8047 5.27832C14.4008 5.27828 14.8845 4.79524 14.8848 4.19922C14.8848 3.60298 14.4009 3.11918 13.8047 3.11914L13.6943 3.125Z" fill="#FE93B9" style="fill:#FE93B9;fill:color(display-p3 0.9961 0.5765 0.7255);fill-opacity:1;"/>
<path d="M9.00101 6.00195C10.6578 6.00195 12.001 7.34503 12.001 9.00198C12.001 10.6588 10.6578 12.002 9.00101 12.002C7.34405 12.002 6.00098 10.6588 6.00098 9.00198C6.00098 7.34503 7.34405 6.00195 9.00101 6.00195Z" fill="#FE93B9" style="fill:#FE93B9;fill:color(display-p3 0.9961 0.5765 0.7255);fill-opacity:1;"/>
</svg>
