<svg width="150" height="150" viewBox="0 0 150 150" fill="none" xmlns="http://www.w3.org/2000/svg">
<g clip-path="url(#clip0_136_9953)">
<path d="M115.576 24.668C115.02 25.1661 114.229 26.9532 112.617 31.3477C111.416 34.6583 110.303 37.6758 110.127 38.0567C109.834 38.7598 109.775 38.7012 107.49 36.2403C104.707 33.2227 102.305 31.5821 99.4922 30.6739C97.793 30.1466 96.7383 30.0294 93.6035 30.0294C87.7735 30.0587 85.6348 30.8497 80.5078 34.9512C75.2344 39.1407 74.5313 39.1407 69.0821 34.8048C65.4199 31.8458 63.4571 30.8497 60.2344 30.2637C57.1582 29.7071 52.5293 29.9415 50.0684 30.7618C46.3477 32.0215 44.7363 33.4278 37.7051 41.4551C30.4102 49.7755 25.3711 54.6094 16.9922 61.2598C12.7734 64.629 5.83009 69.7559 2.54884 71.9239C0.0293057 73.5938 -0.556632 75.088 0.55665 76.9337C1.0254 77.6954 1.58204 78.0177 3.42774 78.6329C6.76759 79.7462 9.19923 81.2696 11.8652 83.9356C14.5899 86.6602 16.3184 89.0626 20.5078 95.9473C27.4805 107.461 31.7871 112.471 38.5547 117.041C44.1211 120.82 53.7305 124.307 60.2344 124.981C61.9043 125.156 62.0801 125.127 62.959 124.336C64.336 123.076 64.4824 121.67 63.3692 120.41C62.6074 119.561 62.168 119.385 59.1797 118.77C50.127 116.895 44.5899 114.463 38.7598 109.775C34.5703 106.406 31.2598 102.158 25.459 92.6368C23.4668 89.3555 20.7129 85.1954 19.3945 83.4376L16.9336 80.1856L18.0762 80.3907C18.6914 80.4786 22.6172 80.6544 26.8067 80.7423C32.5488 80.8594 35.2149 81.0352 37.6465 81.4747C48.0176 83.3497 58.418 86.5137 66.1231 90.1173C71.2793 92.5489 73.4766 93.0469 76.8164 92.5782C78.9258 92.2852 79.8926 91.9044 85.752 89.2677C92.1387 86.3673 100.986 83.5548 109.6 81.7091C113.438 80.8887 114.287 80.8009 118.945 80.8302C121.758 80.8302 125.977 80.7423 128.32 80.5958C130.664 80.4493 132.598 80.3614 132.627 80.3614C132.656 80.3907 132.012 81.211 131.191 82.1778C129.697 83.9649 126.24 89.0919 121.934 95.8594C118.857 100.723 116.689 103.594 113.818 106.611C107.93 112.764 100.225 116.836 90.9668 118.652C86.8946 119.443 86.2207 119.707 85.6934 120.732C84.9317 122.168 85.2539 123.545 86.543 124.57C87.3633 125.274 88.5938 125.215 92.6367 124.365C102.568 122.315 110.742 118.066 117.217 111.621C120.908 107.93 123.545 104.443 127.998 97.4122C134.209 87.627 136.231 84.961 139.424 82.4415C141.182 81.0352 144.727 79.1016 146.631 78.545C148.477 77.9884 149.15 77.5782 149.59 76.6993C150.615 74.7071 150 73.7989 145.518 70.7227C140.947 67.5587 133.184 61.67 129.258 58.3301C127.412 56.7774 125.625 55.254 125.244 54.9317C124.775 54.5508 124.629 54.1993 124.775 53.9356C124.922 53.7305 127.969 52.4415 131.572 51.0938C135.147 49.7755 138.34 48.3985 138.633 48.1055C138.955 47.8126 139.277 46.9923 139.365 46.3477C139.629 44.3848 138.838 43.8575 131.338 41.045L124.863 38.6133L123.164 34.043C120 25.4005 119.824 24.961 119.092 24.4923C118.066 23.8184 116.484 23.9063 115.576 24.668ZM118.77 39.1114C119.502 41.045 120.381 42.8321 120.674 43.0958C120.996 43.3594 122.783 44.1505 124.658 44.8243C126.504 45.5274 127.998 46.1133 127.969 46.1426C127.91 46.1719 126.357 46.7579 124.512 47.461C122.637 48.1348 120.879 48.9844 120.527 49.3653C120.205 49.7169 119.414 51.3868 118.799 53.0567C118.213 54.7266 117.598 56.2208 117.48 56.338C117.363 56.4844 116.836 55.3419 116.309 53.8477C115.137 50.5958 114.609 49.4825 113.994 49.0137C113.731 48.838 112.031 48.1055 110.186 47.4317C108.018 46.6407 107.022 46.1133 107.285 45.9669C107.49 45.8497 108.984 45.2637 110.596 44.6778C112.207 44.0626 113.818 43.3008 114.17 42.9786C114.522 42.6563 115.371 40.8692 116.074 38.9356C116.748 37.0313 117.363 35.5079 117.393 35.5665C117.422 35.5958 118.066 37.2071 118.77 39.1114ZM58.6817 36.0352C61.2598 36.4161 62.4903 37.0606 66.0645 39.9317C70.166 43.213 71.4844 43.7989 75 43.7989C78.4864 43.7989 79.6875 43.2423 84.0821 39.6973C88.0078 36.504 89.3262 35.9766 93.4571 35.9473C95.6836 35.918 96.9434 36.0352 98.0274 36.4161C99.4922 36.9141 101.777 38.6426 103.066 40.1661L103.711 40.9571L100.986 41.8946C97.0606 43.3008 96.1524 43.8282 95.5957 44.9415C95.0977 46.0548 95.2149 47.0508 96.0059 48.0176C96.3574 48.4278 98.8477 49.5118 103.066 51.0938C106.67 52.4415 109.717 53.6719 109.834 53.7891C109.98 53.9356 111.094 56.8946 112.354 60.3516C114.902 67.4122 115.43 68.2618 117.422 68.2618C119.385 68.2618 119.736 67.7344 122.168 61.1426L122.461 60.3223L124.863 62.4024C127.529 64.7169 133.33 69.2579 136.904 71.836L139.189 73.5059L138.223 73.6524C133.066 74.5313 118.418 74.9708 112.061 74.4434C100.488 73.4766 93.0176 71.6309 84.375 67.5294C79.4825 65.2149 77.8418 64.7462 74.7656 64.7462C72.0996 64.7462 69.8438 65.3614 66.5039 67.0606C59.3262 70.6934 52.2656 72.7149 42.334 74.004C35.2149 74.9415 14.2969 74.6192 11.3379 73.5645C10.9277 73.418 11.4844 72.8907 13.7695 71.2208C24.8145 63.2227 34.0723 54.7266 42.8906 44.5899C45.3516 41.7188 47.8711 38.9356 48.4571 38.4376C51.0938 36.1231 54.2285 35.3907 58.6817 36.0352ZM77.666 71.0743C78.545 71.338 79.9219 71.9239 80.7715 72.3634C84.5215 74.4727 94.9805 78.2227 97.0899 78.2227C98.2032 78.2227 97.1485 78.6915 92.9004 80.0977C90.5567 80.8594 86.6895 82.3536 84.2578 83.4083C81.8262 84.463 79.1016 85.6348 78.2227 86.0157C75.7617 87.0704 73.6817 86.9825 70.752 85.6641C69.4629 85.0782 67.2364 84.0821 65.7715 83.4376C64.336 82.793 60.6446 81.4161 57.5684 80.42C54.5215 79.3946 52.2071 78.4864 52.4414 78.3985C52.6758 78.3106 53.9649 77.9884 55.2539 77.6661C59.0332 76.6993 63.4278 75.088 67.3828 73.1837C73.0664 70.4298 74.502 70.1368 77.666 71.0743Z" fill="#FE93B9" style="fill:#FE93B9;fill:color(display-p3 0.9961 0.5765 0.7255);fill-opacity:1;"/>
<path d="M73.535 120.499C72.451 121.026 71.7772 122.579 72.0994 123.721C72.8611 126.475 76.699 126.798 77.6072 124.161C78.1053 122.725 77.9881 122.169 76.9334 121.114C75.8494 120.03 74.824 119.854 73.535 120.499Z" fill="#FE93B9" style="fill:#FE93B9;fill:color(display-p3 0.9961 0.5765 0.7255);fill-opacity:1;"/>
</g>
<defs>
<clipPath id="clip0_136_9953">
<rect width="150" height="150" fill="white" style="fill:white;fill-opacity:1;"/>
</clipPath>
</defs>
</svg>
