<svg width="34" height="35" viewBox="0 0 34 35" fill="none" xmlns="http://www.w3.org/2000/svg">
<path d="M16.9997 0.833984C7.81634 0.833984 0.333008 8.31732 0.333008 17.5007C0.333008 26.684 7.81634 34.1673 16.9997 34.1673C26.183 34.1673 33.6663 26.684 33.6663 17.5007C33.6663 8.31732 26.183 0.833984 16.9997 0.833984ZM21.6497 18.384L15.7663 24.2673C15.5163 24.5173 15.1997 24.634 14.883 24.634C14.5663 24.634 14.2497 24.5173 13.9997 24.2673C13.5163 23.784 13.5163 22.984 13.9997 22.5007L18.9997 17.5007L13.9997 12.5007C13.5163 12.0173 13.5163 11.2173 13.9997 10.734C14.483 10.2507 15.283 10.2507 15.7663 10.734L21.6497 16.6173C22.1497 17.1007 22.1497 17.9007 21.6497 18.384Z" fill="#FE93B9" style="fill:#FE93B9;fill:color(display-p3 0.9961 0.5765 0.7255);fill-opacity:1;"/>
</svg>
