<svg width="32" height="32" viewBox="0 0 32 32" fill="none" xmlns="http://www.w3.org/2000/svg">
<path d="M26.6664 18.1331V15.9997C26.6664 15.4339 26.4416 14.8913 26.0416 14.4912C25.6415 14.0912 25.0989 13.8664 24.5331 13.8664H3.19974C2.63394 13.8664 2.09132 14.0912 1.69125 14.4912C1.29117 14.8913 1.06641 15.4339 1.06641 15.9997V28.7997C1.06641 29.3655 1.29117 29.9082 1.69125 30.3082C2.09132 30.7083 2.63394 30.9331 3.19974 30.9331H24.5331C25.0989 30.9331 25.6415 30.7083 26.0416 30.3082C26.4416 29.9082 26.6664 29.3655 26.6664 28.7997V26.6664M26.6664 18.1331H18.1331C17.0015 18.1331 15.9162 18.5826 15.1161 19.3827C14.3159 20.1829 13.8664 21.2681 13.8664 22.3997C13.8664 23.5313 14.3159 24.6166 15.1161 25.4167C15.9162 26.2169 17.0015 26.6664 18.1331 26.6664H26.6664M26.6664 18.1331C27.798 18.1331 28.8832 18.5826 29.6834 19.3827C30.4835 20.1829 30.9331 21.2681 30.9331 22.3997C30.9331 23.5313 30.4835 24.6166 29.6834 25.4167C28.8832 26.2169 27.798 26.6664 26.6664 26.6664M7.46641 13.8664V7.46641C7.46641 5.76902 8.14069 4.14116 9.34092 2.94092C10.5412 1.74069 12.169 1.06641 13.8664 1.06641C15.5638 1.06641 17.1917 1.74069 18.3919 2.94092C19.5921 4.14116 20.2664 5.76902 20.2664 7.46641V13.8664M25.5997 22.3997H27.7331M21.3331 22.3997H23.4664M17.0664 22.3997H19.1997" stroke="#F3F3F3" style="stroke:#F3F3F3;stroke:color(display-p3 0.9529 0.9529 0.9529);stroke-opacity:1;" stroke-width="2"/>
</svg>
