<svg width="150" height="150" viewBox="0 0 150 150" fill="none" xmlns="http://www.w3.org/2000/svg">
<g clip-path="url(#clip0_136_10016)">
<path d="M48.1643 0.556427C47.4905 0.849396 46.5823 1.61111 46.1135 2.22635C45.2932 3.28104 45.2639 3.48611 45.176 6.79666C45.0588 10.5467 45.3225 11.4549 46.5823 11.865C47.344 12.0994 48.8088 11.5428 49.1018 10.8982C49.2483 10.6053 49.4241 9.08182 49.512 7.47049L49.6584 4.5408L59.0041 4.45291C65.6545 4.39432 68.467 4.48221 68.7307 4.71658C69.053 4.98026 69.1409 6.91385 69.1409 14.824V24.6092H59.3264H49.512V22.2654C49.512 19.658 49.1897 18.6619 48.135 18.1931C47.0803 17.7244 46.6409 17.783 45.8498 18.6033C45.176 19.2478 45.1174 19.5408 45.1174 21.9431V24.5506L41.3674 24.6677C37.8518 24.7556 37.5295 24.8142 36.4162 25.5467C35.7131 26.0154 34.9807 26.8357 34.5998 27.5974C34.0139 28.8572 33.9846 29.2967 33.9846 38.9939V49.1013L32.3147 49.9217C27.7444 52.1482 22.0901 56.4256 17.7248 60.9959C8.7014 70.3416 3.45726 81.4451 1.90452 94.3357C0.52757 105.527 2.54905 116.66 7.7639 127.06C11.1623 133.799 15.5276 139.453 21.1233 144.375C24.6389 147.48 26.6018 148.769 28.7991 149.472C30.469 150 31.9338 150 59.883 149.941L89.2092 149.853L91.1135 148.945C94.2776 147.451 99.3752 142.998 103.477 138.164C107.549 133.388 111.358 126.885 113.467 121.025L114.463 118.301L116.074 120.586C118.711 124.365 121.494 126.592 125.01 127.763C126.563 128.261 127.412 128.379 129.61 128.261C133.242 128.115 135.821 126.914 138.926 123.955C142.324 120.732 142.91 118.945 140.889 117.92C139.629 117.246 138.985 117.568 136.787 119.941C134.18 122.724 132.393 123.691 129.492 123.867C127.647 123.984 127.002 123.896 125.86 123.369C122.403 121.845 119.854 119.092 117.539 114.316L116.221 111.592L116.602 108.164C117.393 101.338 116.924 93.2224 115.401 87.2459L114.844 84.99L115.606 82.5584C117.217 77.4314 119.444 73.5642 122.285 70.9861C124.717 68.7302 126.211 68.115 129.053 68.115C131.045 68.115 131.631 68.2615 133.008 68.9646C136.26 70.6638 139.541 74.9705 141.533 80.1267C144.434 87.6267 145.108 98.0271 143.233 106.142C142.266 110.273 142.207 111.152 142.94 111.885C143.643 112.588 144.932 112.676 145.723 112.119C146.836 111.299 148.301 104.765 148.682 98.7302C148.77 97.031 148.711 93.9255 148.535 91.8455C147.686 81.8845 144.551 73.7986 139.424 68.408L137.403 66.2986V61.8162C137.403 58.2713 137.315 57.158 136.905 56.3377C136.231 54.9021 134.414 53.6716 132.686 53.4373L131.25 53.2322V49.3943C131.25 47.2849 131.104 44.3552 130.957 42.9197C129.258 27.9783 118.389 15.8494 103.418 12.2459C101.133 11.6892 99.7854 11.6306 87.2463 11.5135L73.594 11.367L73.4768 7.49979C73.3889 3.86697 73.3303 3.54471 72.5979 2.43143C72.1291 1.7283 71.3088 0.99588 70.5471 0.615021C69.2873 0.0290833 68.8479 -0.000213623 59.2971 -0.000213623C50.2444 -0.000213623 49.2483 0.0583801 48.1643 0.556427ZM103.125 16.6697C106.494 17.6072 110.215 19.2185 112.823 20.9471C115.518 22.7049 119.883 27.0701 121.553 29.5896C125.362 35.449 126.856 41.074 126.856 49.4236C126.856 53.2615 126.856 53.3201 126.211 53.3201C124.014 53.3201 121.846 54.697 120.967 56.6892C120.528 57.656 120.41 58.6228 120.41 62.2263V66.5916L118.975 67.9685C116.983 69.8728 115.137 72.4509 113.672 75.4392L112.412 77.9881L110.625 74.5017C107.52 68.5252 104.209 64.1013 99.4338 59.4724C95.2737 55.4588 90.4104 51.9138 86.3674 49.9217L84.6682 49.1013V39.4041C84.6682 33.6619 84.551 29.2967 84.3752 28.6521C83.9651 27.1873 82.7639 25.8103 81.2991 25.1658C80.3909 24.7556 79.3948 24.6092 76.8459 24.6092H73.5354V20.1853V15.7908L87.0999 15.8787C100.137 15.9959 100.723 16.0252 103.125 16.6697ZM44.1799 37.0896L44.092 45.1756L41.2502 46.1131L38.3791 47.0799V38.408C38.3791 32.0213 38.467 29.6189 38.7307 29.3552C38.9651 29.1209 40.0491 29.0037 41.6604 29.0037H44.2385L44.1799 37.0896ZM57.1291 36.1814V43.3592L55.4592 43.3885C54.5217 43.3885 52.676 43.5642 51.3284 43.7693C50.01 43.9451 48.8381 44.0623 48.7795 43.9744C48.5452 43.7693 48.6038 29.4138 48.8381 29.2088C48.926 29.0916 50.8596 29.0037 53.0862 29.0037H57.1291V36.1814ZM69.7268 36.5916V44.1502L68.4963 43.9158C67.7932 43.7986 65.9475 43.5935 64.3948 43.4763L61.5237 43.2713V36.1521V29.0037H65.6252H69.7268V36.5916ZM79.9807 29.5603C80.303 30.1756 80.4202 46.8748 80.0979 46.8748C80.01 46.8748 78.6331 46.4646 77.0217 45.9666L74.1213 45.0584V37.031V29.0037H76.9045C79.3362 29.0037 79.717 29.0623 79.9807 29.5603ZM63.7502 47.8709C71.8069 48.2517 81.4749 51.5916 88.8284 56.5134C114.346 73.5642 120.323 108.252 102.012 133.008C98.4377 137.812 91.4065 144.258 88.7112 145.195C87.5979 145.547 83.4084 145.605 58.7405 145.547L30.0295 145.459L28.8577 144.844C26.9827 143.818 21.4162 138.896 19.0432 136.113C4.83421 119.56 1.87523 96.8845 11.426 77.49C18.8088 62.4607 32.4026 52.0017 48.9553 48.6326C51.8557 48.0467 58.008 47.49 59.9123 47.6658C60.4104 47.6951 62.1096 47.783 63.7502 47.8709ZM132.539 57.8904C132.92 58.0369 133.008 58.6228 133.008 61.1131V64.1306L132.071 63.9256C130.752 63.6326 126.944 63.6619 125.772 63.9548L124.805 64.2185V61.3181C124.805 59.4431 124.922 58.3006 125.157 58.0662C125.537 57.6853 131.66 57.5388 132.539 57.8904Z" fill="#FE93B9" style="fill:#FE93B9;fill:color(display-p3 0.9961 0.5765 0.7255);fill-opacity:1;"/>
<path d="M16.2305 82.295C14.5605 83.0568 13.623 84.4044 12.7734 87.3927C11.2793 92.5197 10.9863 94.6876 10.9863 100.928C10.9863 105.85 11.1035 107.315 11.6602 110.098C13.7988 120.733 19.3359 130.459 27.0703 137.139C31.1426 140.684 27.5098 140.332 59.2383 140.332C85.5762 140.332 86.9238 140.303 88.0664 139.776C89.4726 139.131 94.541 134.356 96.9726 131.397C104.619 122.051 108.604 109.219 107.578 97.295C107.08 91.7286 105.732 86.045 104.443 84.0529C104.033 83.4376 103.184 82.7052 102.48 82.3536C101.221 81.7677 100.781 81.7384 90.498 81.7384C80.1269 81.7384 79.7754 81.7677 79.1601 82.3243C78.2812 83.1446 78.3105 84.6681 79.1894 85.4884C79.8633 86.1329 80.0098 86.1329 90.1465 86.1329C97.998 86.1329 100.488 86.2208 100.693 86.4845C101.631 87.6564 102.979 94.1017 103.271 98.7306C103.828 106.787 101.484 116.25 97.1777 123.428C94.8633 127.236 92.4609 130.195 89.0039 133.418L86.3086 135.938H59.3555H32.373L30.0879 133.945C23.0566 127.852 18.1348 119.356 16.0547 109.776C15.5273 107.285 15.4102 105.85 15.4102 101.074C15.4102 95.1564 15.791 92.256 17.1973 87.8907L17.7246 86.2794L44.4727 86.1329L71.25 85.9865L71.8066 85.2833C72.5684 84.3458 72.5098 83.3204 71.6309 82.4708L70.9277 81.7384H44.1797C18.6914 81.7384 17.373 81.7677 16.2305 82.295Z" fill="#FE93B9" style="fill:#FE93B9;fill:color(display-p3 0.9961 0.5765 0.7255);fill-opacity:1;"/>
<path d="M17.9297 2.8125C17.5781 3.04687 16.7871 4.27734 16.2012 5.50781C14.8535 8.34961 12.627 10.6348 9.90234 11.9238C7.85156 12.9199 7.03125 13.7695 7.03125 14.8535C7.03125 16.2598 7.70508 16.9922 9.99023 18.1934C12.8906 19.7168 14.9414 21.8262 16.2891 24.7559C17.373 27.0703 17.8711 27.5391 19.3359 27.5391C20.8008 27.5391 21.3281 27.0703 22.4707 24.668C23.8477 21.7676 26.1914 19.3652 28.8574 18.1348C30.9961 17.1387 31.6406 16.4062 31.6406 15.0879C31.6406 13.7695 30.9375 12.9785 28.7109 11.8652C26.0156 10.5176 23.9062 8.34961 22.6172 5.65429C21.1523 2.54883 19.6289 1.61133 17.9297 2.8125ZM20.8008 11.0742C21.4746 11.9238 22.7051 13.1836 23.584 13.8281L25.1367 15.0586L24.0527 15.8203C22.9395 16.6406 20.6836 18.9844 19.834 20.1855C19.5703 20.5957 19.3066 20.8594 19.248 20.7715C17.5781 18.4277 16.4941 17.1973 15.2637 16.2598C14.4434 15.6152 13.7695 15.0293 13.7695 14.9414C13.7695 14.8242 14.1211 14.5605 14.5312 14.3262C15.4102 13.8867 19.043 10.0488 19.043 9.60937C19.043 9.08203 19.5703 9.52148 20.8008 11.0742Z" fill="#FE93B9" style="fill:#FE93B9;fill:color(display-p3 0.9961 0.5765 0.7255);fill-opacity:1;"/>
<path d="M54.4925 13.6824C54.0237 14.2683 53.9065 14.7371 54.0237 15.3816C54.2581 16.4949 54.6975 16.9343 55.8694 17.1687C57.7737 17.5496 59.0628 15.0007 57.7151 13.5359C56.8362 12.5984 55.3128 12.657 54.4925 13.6824Z" fill="#FE93B9" style="fill:#FE93B9;fill:color(display-p3 0.9961 0.5765 0.7255);fill-opacity:1;"/>
</g>
<defs>
<clipPath id="clip0_136_10016">
<rect width="150" height="150" fill="white" style="fill:white;fill-opacity:1;"/>
</clipPath>
</defs>
</svg>
