<svg width="34" height="35" viewBox="0 0 34 35" fill="none" xmlns="http://www.w3.org/2000/svg">
<path d="M16.9997 0.833984C7.81634 0.833984 0.333008 8.31732 0.333008 17.5007C0.333008 26.684 7.81634 34.1673 16.9997 34.1673C26.183 34.1673 33.6663 26.684 33.6663 17.5007C33.6663 8.31732 26.183 0.833984 16.9997 0.833984ZM19.983 22.5007C20.4663 22.984 20.4663 23.784 19.983 24.2673C19.733 24.5173 19.4163 24.634 19.0997 24.634C18.783 24.634 18.4663 24.5173 18.2163 24.2673L12.333 18.384C11.8497 17.9007 11.8497 17.1007 12.333 16.6173L18.2163 10.734C18.6997 10.2507 19.4997 10.2507 19.983 10.734C20.4663 11.2173 20.4663 12.0173 19.983 12.5007L14.983 17.5007L19.983 22.5007Z" fill="#FE93B9" style="fill:#FE93B9;fill:color(display-p3 0.9961 0.5765 0.7255);fill-opacity:1;"/>
</svg>
