<svg width="25" height="25" viewBox="0 0 25 25" fill="none" xmlns="http://www.w3.org/2000/svg">
<path d="M9.54492 13.4102L10.3787 14.5219C10.6505 14.8842 10.7863 15.0654 10.9679 15.1051C11.0259 15.1178 11.0858 15.1201 11.1447 15.1118C11.3287 15.0858 11.4778 14.9154 11.7761 14.5746L14.5449 11.4102M12.0449 22.4102C16.5914 22.4102 19.4296 17.3611 20.5595 12.0331C20.8226 10.7922 20.9542 10.1717 20.7347 9.43824C20.6704 9.22357 20.548 8.94636 20.4327 8.75424C20.0386 8.09782 19.4014 7.72416 18.1271 6.97685L14.7765 5.01203C13.5956 4.31949 13.0051 3.97322 12.3625 3.9048C12.1514 3.88232 11.9384 3.88232 11.7273 3.9048C11.0848 3.97322 10.4943 4.31949 9.3133 5.01204L5.96276 6.97685C4.68841 7.72416 4.05123 8.09782 3.65715 8.75424C3.54182 8.94636 3.41944 9.22357 3.35519 9.43824C3.13568 10.1717 3.26725 10.7922 3.53039 12.0331C4.66025 17.3611 7.49843 22.4102 12.0449 22.4102Z" stroke="black" stroke-opacity="0.8" style="stroke:black;stroke-opacity:0.8;" stroke-width="1.5" stroke-linecap="round" stroke-linejoin="round"/>
</svg>
