<svg width="25" height="25" viewBox="0 0 25 25" fill="none" xmlns="http://www.w3.org/2000/svg">
<path d="M7.46867 4.64204C5.38772 4.95884 3.90869 6.76837 4.02733 8.85226C4.06249 9.47028 4.15672 9.82958 4.43403 10.4034C4.83185 11.2265 5.44217 11.8385 6.26288 12.2371L6.71734 12.4579L6.71772 12.9481L6.71804 13.4384L6.26456 13.6565C5.4516 14.0474 4.83241 14.6686 4.43403 15.4929C4.15672 16.0667 4.06249 16.426 4.02733 17.044C3.90547 19.1844 5.42802 20.9856 7.59334 21.2626C8.09066 21.3262 8.71719 21.2711 9.20298 21.1211C9.57269 21.0069 9.68909 20.9272 9.64688 20.8172C9.61163 20.7254 9.58968 20.7283 9.07957 20.8906C8.80525 20.9779 8.64014 20.9952 8.05233 20.9986C7.44145 21.0021 7.30716 20.9887 7.00175 20.8932C5.69631 20.4854 4.72413 19.4859 4.38318 18.2011C4.24371 17.6756 4.24333 16.8514 4.38229 16.3334C4.72077 15.0715 5.62119 14.1051 6.85242 13.6823C7.20159 13.5624 7.34732 13.5396 7.89124 13.5199C8.6591 13.4922 9.08335 13.5802 9.73326 13.902C10.8705 14.4651 11.6118 15.52 11.7841 16.8208C11.8304 17.1695 11.8489 17.2205 11.9292 17.2205C12.1493 17.2205 12.0138 16.268 11.6958 15.5796C11.2811 14.6823 10.416 13.8536 9.55817 13.5322L9.33638 13.4491V12.9522V12.4553L9.64534 12.3207C10.304 12.0338 10.9821 11.4721 11.3867 10.8785C12.1279 9.79092 12.2671 8.19912 11.7256 7.00473C11.0874 5.59732 9.76525 4.69512 8.22864 4.61855C7.97757 4.60604 7.6356 4.61659 7.46867 4.64204ZM8.79768 4.94148C10.7918 5.3534 12.1258 7.33204 11.7453 9.31368C11.4647 10.7749 10.3757 11.9337 8.94369 12.2947C8.21589 12.4782 7.20603 12.3935 6.52357 12.0917C5.71719 11.735 4.99336 11.0282 4.62215 10.235C4.17796 9.28571 4.15709 8.13483 4.5664 7.16073C5.04136 6.03025 6.11655 5.15958 7.3321 4.92107C7.67038 4.85472 8.42872 4.86527 8.79768 4.94148ZM7.46867 12.6192C7.87079 12.6829 8.30256 12.6777 8.72223 12.6041C8.98273 12.5584 9.07037 12.5571 9.08629 12.5986C9.09787 12.6288 9.10105 12.809 9.09343 12.9992C9.08349 13.2471 9.0629 13.3417 9.02064 13.3332C8.57384 13.2432 8.02707 13.2152 7.62094 13.2613C7.37024 13.2897 7.12842 13.3277 7.08346 13.3457C7.00922 13.3754 7.00175 13.3393 7.00175 12.95C7.00175 12.5637 7.00978 12.524 7.08346 12.5463C7.12842 12.5599 7.30175 12.5927 7.46867 12.6192Z" fill="#393939" style="fill:#393939;fill:color(display-p3 0.2235 0.2235 0.2235);fill-opacity:1;"/>
<path d="M18.5734 9.29204C18.4879 9.36203 18.1712 9.63672 17.8694 9.9024L17.3208 10.3855V12.0397C17.3208 13.4506 17.3109 13.6939 17.2533 13.6939C17.2162 13.6939 17.1269 13.7446 17.0549 13.8065L16.9239 13.919L16.9005 14.6568L16.8772 15.3946L16.716 15.4274C16.6274 15.4455 16.5276 15.4976 16.4942 15.5432C16.4462 15.609 16.4336 16.1934 16.4336 18.3688V21.1113L16.5588 21.2098C16.6815 21.3063 16.7167 21.308 18.2906 21.2949L19.8972 21.2815L19.9864 21.1712C20.0719 21.0656 20.0756 20.9491 20.0756 18.3436C20.0756 16.1889 20.0631 15.609 20.015 15.5432C19.9816 15.4976 19.8818 15.4455 19.7932 15.4274L19.632 15.3946L19.6087 14.6568L19.5853 13.919L19.4543 13.8065C19.3823 13.7446 19.293 13.6939 19.2559 13.6939C19.1981 13.6939 19.1885 13.3853 19.1885 11.5309V9.36782L19.0804 9.26626C18.9349 9.12959 18.7608 9.13847 18.5734 9.29204ZM19.8309 18.7951L19.8188 21.0013H18.2546H16.6904L16.6783 18.7951L16.6661 16.5889H18.2546H19.8431L19.8309 18.7951ZM19.2993 14.0143C19.3665 14.0886 19.3761 14.1952 19.3649 14.7497L19.3519 15.3982L19.1418 15.4216C18.9445 15.4435 18.9254 15.4617 18.948 15.6066C18.9519 15.6313 19.1494 15.6575 19.3869 15.6649L19.8188 15.6784L19.8326 15.9935L19.8464 16.3087H18.2546H16.6628L16.6766 15.9935L16.6904 15.6784L17.5309 15.655C18.3554 15.6321 18.3716 15.6297 18.3861 15.528C18.4006 15.4259 18.3914 15.4241 17.7791 15.4112L17.1573 15.3982L17.1444 14.7374C17.1336 14.1825 17.1434 14.0647 17.2061 14.002C17.2697 13.9384 17.4243 13.9274 18.2507 13.9274C19.1372 13.9274 19.2274 13.9349 19.2993 14.0143ZM18.9438 11.5872L18.9316 13.6706L18.2423 13.6835L17.553 13.6965L17.5653 12.0973L17.5776 10.4982L18.2046 9.94942C18.6923 9.52261 18.8454 9.41208 18.8938 9.45224C18.9442 9.49408 18.9536 9.89811 18.9438 11.5872Z" fill="#393939" style="fill:#393939;fill:color(display-p3 0.2235 0.2235 0.2235);fill-opacity:1;"/>
<path d="M7.2824 5.7371C6.4813 5.94749 5.73898 6.55464 5.37426 7.29775C5.00763 8.04479 4.95039 8.80961 5.20453 9.56664C5.47755 10.3799 6.00008 10.968 6.77784 11.3374C8.2248 12.0245 9.99104 11.4134 10.6934 9.98258C10.9347 9.49109 11.0178 9.14416 11.0178 8.62849C11.0178 7.95201 10.8149 7.34813 10.4053 6.80556C10.0328 6.31226 9.40327 5.89595 8.78913 5.73682C8.4344 5.64488 7.63292 5.64507 7.2824 5.7371ZM8.70204 5.98919C9.21328 6.11998 9.58776 6.33425 9.9683 6.71386C11.0434 7.78616 11.0454 9.46391 9.97283 10.5406C9.42797 11.0876 8.78604 11.3578 8.02762 11.3593C6.80941 11.3617 5.70004 10.5032 5.39532 9.32216C5.3031 8.96463 5.30058 8.29039 5.39018 7.95355C5.77773 6.4973 7.25728 5.61971 8.70204 5.98919Z" fill="#393939" style="fill:#393939;fill:color(display-p3 0.2235 0.2235 0.2235);fill-opacity:1;"/>
<path d="M13.7722 5.73654C13.2066 5.89427 12.7181 6.19399 12.5747 6.4713C12.4209 6.76859 12.462 6.94588 13.1097 8.77908L13.7235 10.5167L13.4912 13.7518C13.3634 15.5313 13.2588 17.035 13.2588 17.0936C13.2586 17.2115 13.3784 17.2829 13.4522 17.209C13.4883 17.1729 13.7207 14.4455 13.7248 14.0104C13.7255 13.936 13.7925 13.9287 14.4726 13.9287H15.2197L15.2215 14.0805C15.228 14.618 15.4455 17.1615 15.4886 17.2046C15.5579 17.2739 15.6866 17.2197 15.6866 17.1212C15.6866 17.0779 15.5813 15.5746 15.4526 13.7806L15.2185 10.5189L15.8334 8.7802C16.509 6.87001 16.5425 6.71508 16.3486 6.40131C16.2233 6.19857 15.8628 5.95147 15.4765 5.80359C15.1091 5.66296 14.1689 5.62598 13.7722 5.73654ZM15.1284 5.97435C15.1543 6.00026 15.1525 6.18129 15.1238 6.43334C15.0709 6.89924 15.0832 6.97152 15.2151 6.97152C15.3252 6.97152 15.3432 6.91539 15.3834 6.44622C15.4029 6.21934 15.4347 6.08454 15.4688 6.08478C15.5911 6.08576 16.0236 6.3788 16.1086 6.51832C16.1588 6.60064 16.1988 6.74156 16.1975 6.83144C16.1962 6.92132 15.9268 7.75128 15.5987 8.6758L15.0022 10.3567H14.4708H13.9396L13.342 8.6758C12.676 6.80268 12.658 6.70915 12.915 6.45416C13.036 6.33412 13.5861 6.02277 13.6191 6.05573C13.6266 6.06321 13.6958 6.48773 13.7728 6.99906C13.9491 8.16867 13.9419 8.13883 14.0505 8.13883C14.0999 8.13883 14.1525 8.11894 14.1676 8.09466C14.1826 8.07038 14.1306 7.62386 14.0522 7.10244C13.9737 6.58103 13.9049 6.11237 13.8992 6.06101C13.8912 5.9884 13.9253 5.96057 14.0524 5.93587C14.2746 5.89268 15.0753 5.92131 15.1284 5.97435ZM14.9868 10.7653C14.9872 10.8488 15.0289 11.4739 15.0796 12.1544C15.1303 12.8349 15.1721 13.4496 15.1724 13.5202L15.173 13.6486H14.4726H13.7722L13.7728 13.4735C13.7732 13.3772 13.8149 12.7416 13.8656 12.061C13.9163 11.3805 13.9581 10.7764 13.9584 10.7186C13.959 10.6161 13.9713 10.6135 14.4726 10.6135H14.9862L14.9868 10.7653Z" fill="#393939" style="fill:#393939;fill:color(display-p3 0.2235 0.2235 0.2235);fill-opacity:1;"/>
<path d="M10.3341 17.671C10.2792 17.6976 10.2109 17.7707 10.1823 17.8335C10.1267 17.9556 10.1068 20.8624 10.1602 21.0619C10.2251 21.3041 10.2375 21.3051 13.1806 21.3051C15.5487 21.3051 15.9164 21.2959 15.9669 21.2351C16.0132 21.1792 16.0132 21.1509 15.9669 21.095C15.9167 21.0345 15.6061 21.025 13.6976 21.025H11.4865L11.4738 20.1728C11.4616 19.3561 11.4572 19.3207 11.3677 19.3207C11.2781 19.3207 11.2738 19.3561 11.2615 20.1728L11.2488 21.025H10.8296H10.4105V19.4608V17.8966H10.8307H11.2509V18.3607C11.2509 18.8287 11.2745 18.901 11.4101 18.8489C11.4711 18.8255 11.4844 18.7377 11.4844 18.3585V17.8966H13.6966C15.606 17.8966 15.9167 17.887 15.9669 17.8265C16.0132 17.7706 16.0132 17.7423 15.9669 17.6864C15.9164 17.6256 15.5502 17.6168 13.1713 17.6196C11.3878 17.6216 10.3991 17.6396 10.3341 17.671Z" fill="#393939" style="fill:#393939;fill:color(display-p3 0.2235 0.2235 0.2235);fill-opacity:1;"/>
<path d="M7.48354 14.3217C6.14407 14.5757 5.14652 15.7194 5.05743 17.1034C4.96816 18.49 5.94137 19.8147 7.30386 20.161C7.65714 20.2508 8.3854 20.2511 8.76534 20.1615C9.10708 20.0809 9.60926 19.8394 9.64872 19.7366C9.66375 19.6973 9.65306 19.6421 9.62486 19.6139C9.58769 19.5768 9.48674 19.6027 9.25683 19.7085C8.04964 20.264 6.75392 19.9827 5.9241 18.985C5.52693 18.5076 5.32274 17.9273 5.32186 17.2735C5.32083 16.5033 5.5824 15.8649 6.1189 15.3284C6.46293 14.9844 7.02063 14.6755 7.45977 14.5858C7.80413 14.5155 8.32559 14.5239 8.67126 14.6054C9.6476 14.8356 10.5032 15.6905 10.6915 16.624C10.7214 16.7721 10.7605 16.9668 10.7785 17.0567C10.8025 17.1768 10.8355 17.2201 10.9028 17.2201C11.1157 17.2201 11.0092 16.5547 10.6937 15.9127C10.1194 14.7444 8.77323 14.0772 7.48354 14.3217Z" fill="#393939" style="fill:#393939;fill:color(display-p3 0.2235 0.2235 0.2235);fill-opacity:1;"/>
<path d="M7.7207 8.23801C6.93295 9.02572 6.30176 9.69356 6.30176 9.73927C6.30176 9.99702 6.47046 9.85951 7.8718 8.45966C9.27075 7.0622 9.40005 6.90494 9.20319 6.84004C9.16593 6.82776 8.55169 7.40702 7.7207 8.23801Z" fill="#393939" style="fill:#393939;fill:color(display-p3 0.2235 0.2235 0.2235);fill-opacity:1;"/>
<path d="M7.37042 15.341C6.787 15.5419 6.32306 16.0086 6.1136 16.6053C5.98729 16.9652 6.00032 17.3588 6.13858 17.3588C6.21646 17.3588 6.2371 17.3166 6.26437 17.102C6.37503 16.2299 6.94445 15.6407 7.81886 15.4934C8.09262 15.4472 8.14655 15.4233 8.14655 15.3479C8.14655 15.2099 7.76129 15.2064 7.37042 15.341Z" fill="#393939" stroke="#393939" style="fill:#393939;fill:color(display-p3 0.2235 0.2235 0.2235);fill-opacity:1;stroke:#393939;stroke:color(display-p3 0.2235 0.2235 0.2235);stroke-opacity:1;" stroke-width="1.33333"/>
<path d="M6.78026 7.30982C6.01978 8.07128 5.86532 8.27823 6.05755 8.27823C6.18353 8.27823 7.76977 6.67037 7.73447 6.57843C7.71874 6.53743 7.67872 6.50391 7.64557 6.50391C7.61237 6.50391 7.223 6.86657 6.78026 7.30982Z" fill="#393939" stroke="#393939" style="fill:#393939;fill:color(display-p3 0.2235 0.2235 0.2235);fill-opacity:1;stroke:#393939;stroke:color(display-p3 0.2235 0.2235 0.2235);stroke-opacity:1;" stroke-width="1.33333"/>
</svg>
