<svg width="18" height="18" viewBox="0 0 18 18" fill="none" xmlns="http://www.w3.org/2000/svg">
<path d="M9.71151 1.91694C9.64063 1.79048 9.53733 1.68519 9.41225 1.61191C9.28716 1.53863 9.14481 1.5 8.99984 1.5C8.85487 1.5 8.71252 1.53863 8.58744 1.61191C8.46235 1.68519 8.35906 1.79048 8.28817 1.91694C8.12151 2.22027 7.96123 2.5275 7.80734 2.83861C7.3225 3.82274 6.91029 4.84101 6.57401 5.88527C6.45817 6.24444 6.11484 6.49361 5.72151 6.50444C4.52919 6.53579 3.34075 6.65416 2.16567 6.85861C1.52067 6.97194 1.27817 7.70694 1.73651 8.15527C1.84095 8.25805 1.94651 8.35944 2.05317 8.45944C2.85073 9.21265 3.69399 9.91593 4.57817 10.5653C4.88401 10.7894 5.00984 11.1736 4.89317 11.5253C4.44875 12.8611 4.13069 14.2358 3.94317 15.6311C3.85984 16.2603 4.53317 16.7044 5.11817 16.4044C6.27821 15.8096 7.38748 15.1207 8.43484 14.3444C8.59889 14.2247 8.79674 14.1602 8.99984 14.1602C9.20294 14.1602 9.40079 14.2247 9.56484 14.3444C10.612 15.121 11.7213 15.81 12.8815 16.4044C13.4657 16.7044 14.1398 16.2603 14.0565 15.6311C14.0243 15.395 13.989 15.1603 13.9507 14.9269C13.7582 13.7728 13.4759 12.6355 13.1065 11.5253C12.9898 11.1736 13.1148 10.7894 13.4215 10.5653C14.4246 9.83027 15.3742 9.0249 16.2632 8.15527C16.7215 7.70694 16.4798 6.97194 15.834 6.85861C14.6591 6.65296 13.4706 6.53458 12.2782 6.50444C12.0896 6.50144 11.9066 6.44038 11.7541 6.32958C11.6015 6.21878 11.4868 6.06363 11.4257 5.88527C10.9829 4.51083 10.4089 3.18137 9.71151 1.91694Z" stroke="#FFC107" style="stroke:#FFC107;stroke:color(display-p3 1.0000 0.7569 0.0275);stroke-opacity:1;" stroke-width="1.5" stroke-linecap="round" stroke-linejoin="round"/>
</svg>
