<svg width="20" height="20" viewBox="0 0 20 20" fill="none" xmlns="http://www.w3.org/2000/svg">
<path d="M11.2585 2.61563C10.7152 1.62812 9.28516 1.62812 8.741 2.61563C8.0254 3.91595 7.4355 5.28158 6.97933 6.69396C6.95782 6.74922 6.91997 6.7966 6.87084 6.82981C6.82171 6.86301 6.76362 6.88044 6.70433 6.87979C5.4818 6.91157 4.26325 7.033 3.0585 7.24313C1.94433 7.43729 1.4535 8.77396 2.30016 9.60146C2.40683 9.7059 2.51461 9.80979 2.6235 9.91313C3.43917 10.6855 4.30284 11.4055 5.20933 12.069C5.25051 12.0963 5.28171 12.1363 5.29824 12.1828C5.31477 12.2294 5.31574 12.2801 5.301 12.3273C4.84336 13.7004 4.51636 15.1136 4.32433 16.5481C4.166 17.7348 5.42266 18.4631 6.4035 17.9598C7.59423 17.3495 8.73278 16.6424 9.80766 15.8456C9.86395 15.8058 9.93121 15.7844 10.0002 15.7844C10.0691 15.7844 10.1364 15.8058 10.1927 15.8456C11.2669 16.6434 12.4055 17.3505 13.5968 17.9598C14.5777 18.4631 15.8343 17.7348 15.676 16.5481C15.4842 15.1136 15.1575 13.7004 14.7002 12.3273C14.6854 12.2801 14.6864 12.2294 14.7029 12.1828C14.7194 12.1363 14.7506 12.0963 14.7918 12.069C15.8189 11.3172 16.7908 10.4929 17.7002 9.60229C18.5468 8.77396 18.056 7.43729 16.9418 7.24313C15.7368 7.03296 14.518 6.91153 13.2952 6.87979C13.236 6.88027 13.1781 6.86276 13.1291 6.82957C13.0802 6.79638 13.0425 6.74908 13.021 6.69396C12.5663 5.28104 11.9755 3.91527 11.2585 2.61563Z" fill="#FFC107" style="fill:#FFC107;fill:color(display-p3 1.0000 0.7569 0.0275);fill-opacity:1;"/>
</svg>
