<svg width="32" height="32" viewBox="0 0 32 32" fill="none" xmlns="http://www.w3.org/2000/svg">
<path d="M15.9987 16.9993C11.772 16.9993 8.33203 13.5593 8.33203 9.33268C8.33203 5.10602 11.772 1.66602 15.9987 1.66602C20.2254 1.66602 23.6654 5.10602 23.6654 9.33268C23.6654 13.5593 20.2254 16.9993 15.9987 16.9993ZM15.9987 3.66602C12.8787 3.66602 10.332 6.21268 10.332 9.33268C10.332 12.4527 12.8787 14.9993 15.9987 14.9993C19.1187 14.9993 21.6654 12.4527 21.6654 9.33268C21.6654 6.21268 19.1187 3.66602 15.9987 3.66602Z" fill="#F3F3F3" style="fill:#F3F3F3;fill:color(display-p3 0.9529 0.9529 0.9529);fill-opacity:1;"/>
<path d="M27.4535 30.3333C26.9069 30.3333 26.4535 29.88 26.4535 29.3333C26.4535 24.7333 21.7602 21 16.0002 21C10.2402 21 5.54687 24.7333 5.54687 29.3333C5.54687 29.88 5.09354 30.3333 4.54687 30.3333C4.00021 30.3333 3.54688 29.88 3.54688 29.3333C3.54688 23.64 9.13354 19 16.0002 19C22.8669 19 28.4535 23.64 28.4535 29.3333C28.4535 29.88 28.0002 30.3333 27.4535 30.3333Z" fill="#F3F3F3" style="fill:#F3F3F3;fill:color(display-p3 0.9529 0.9529 0.9529);fill-opacity:1;"/>
</svg>
